<svg width="393" height="131" viewBox="0 0 393 131" fill="none" xmlns="http://www.w3.org/2000/svg">
<path d="M5.58671 73.8085C7.45971 72.9995 9.61871 72.1685 9.61871 69.6615C9.61871 68.2615 8.66471 65.8845 5.08871 65.8845C1.07971 65.8845 0.364715 68.8195 0.239715 69.9495H2.40971C2.41431 69.6346 2.48474 69.3241 2.61647 69.038C2.7482 68.752 2.93832 68.4966 3.17461 68.2884C3.41089 68.0802 3.68813 67.9237 3.98849 67.829C4.28886 67.7343 4.60573 67.7035 4.91872 67.7385C6.64172 67.7385 7.54771 68.4535 7.54771 69.7135C7.54771 71.3255 6.21372 71.7885 4.78972 72.3255C3.09934 72.784 1.62549 73.8254 0.628707 75.2655C0.188692 76.0957 -0.0270738 77.0264 0.00271509 77.9655H9.44771V76.0535H2.62971C2.62971 75.1595 4.21971 74.3985 5.58571 73.8085H5.58671ZM10.6587 71.8695C10.6587 75.6875 12.6037 77.9695 15.8587 77.9695C19.0677 77.9695 21.0587 75.6335 21.0587 71.8695C21.0587 68.1055 19.0647 65.7695 15.8587 65.7695C12.6527 65.7695 10.6587 68.1055 10.6587 71.8695ZM19.0257 71.8695C19.0257 74.5695 17.9907 75.8875 15.8617 75.8875C13.7037 75.8875 12.6987 74.6105 12.6987 71.8695C12.6987 69.1285 13.6987 67.8505 15.8617 67.8505C17.9897 67.8505 19.0257 69.1655 19.0257 71.8695ZM27.1507 73.8085C29.0237 72.9995 31.1827 72.1685 31.1827 69.6615C31.1827 68.2615 30.2287 65.8845 26.6527 65.8845C22.6437 65.8845 21.9287 68.8195 21.8037 69.9495H23.9707C23.9753 69.6346 24.0457 69.3241 24.1775 69.038C24.3092 68.752 24.4993 68.4966 24.7356 68.2884C24.9719 68.0802 25.2491 67.9237 25.5495 67.829C25.8499 67.7343 26.1667 67.7035 26.4797 67.7385C28.2027 67.7385 29.1087 68.4535 29.1087 69.7135C29.1087 71.3255 27.7747 71.7885 26.3507 72.3255C24.6614 72.7846 23.1887 73.8259 22.1927 75.2655C21.7527 76.0957 21.5369 77.0264 21.5667 77.9655H31.0117V76.0535H24.1937C24.1937 75.1595 25.7847 74.3985 27.1507 73.8085ZM32.2227 71.8695C32.2227 75.6875 34.1677 77.9695 37.4227 77.9695C40.6317 77.9695 42.6227 75.6335 42.6227 71.8695C42.6227 68.1055 40.6287 65.7695 37.4227 65.7695C34.2167 65.7695 32.2227 68.1055 32.2227 71.8695ZM40.5897 71.8695C40.5897 74.5695 39.5547 75.8875 37.4257 75.8875C35.2677 75.8875 34.2627 74.6105 34.2627 71.8695C34.2627 69.1285 35.2627 67.8505 37.4257 67.8505C39.5537 67.8505 40.5897 69.1655 40.5897 71.8695ZM51.9017 65.4515H49.7737V77.9655H51.9017V72.6335H59.5927V77.9655H61.7217V65.4505H59.5927V70.7825H51.9017V65.4515ZM68.1807 67.7845C65.4687 67.7845 62.5717 69.1215 62.5717 72.8755C62.5717 76.6295 65.4677 77.9655 68.1797 77.9655C71.6917 77.9655 73.7887 76.0655 73.7887 72.8745C73.7897 69.1205 70.8917 67.7835 68.1797 67.7835L68.1807 67.7845ZM68.1807 76.0705C65.9177 76.0705 64.6717 74.9355 64.6717 72.8705C64.6717 70.8055 65.9187 69.6705 68.1807 69.6705C70.4107 69.6705 71.6897 70.8345 71.6897 72.8705C71.6887 74.8755 70.3767 76.0655 68.1797 76.0655L68.1807 76.0705ZM77.0657 69.4075L76.9517 69.5635H76.7447V67.9865H74.5957V77.9655H76.7447V73.1655C76.7447 72.3145 76.7447 69.7245 80.0197 69.7245C80.4337 69.693 80.8498 69.7447 81.2434 69.8766C81.6371 70.0085 82.0003 70.2179 82.3117 70.4925C82.5802 70.8156 82.7806 71.1896 82.9009 71.592C83.0212 71.9945 83.0589 72.4171 83.0117 72.8345V77.9655H85.1427V72.9755C85.1427 70.8325 84.6977 67.9855 80.8617 67.9855C80.1625 67.9242 79.4583 68.0199 78.8008 68.2658C78.1434 68.5116 77.5492 68.9014 77.0617 69.4065L77.0657 69.4075ZM90.4657 68.0805C86.2757 68.0805 85.8227 71.5715 85.8227 73.0735C85.8227 74.2445 86.1567 78.0665 90.4567 78.0665C92.2177 78.0665 93.9247 77.6235 94.6337 76.7145L94.7487 76.5675H94.9487V77.7295C94.9487 80.0395 93.7697 81.3635 91.7137 81.3635C89.4267 81.3635 88.7547 80.3115 88.5577 79.6745H86.3797C86.5067 80.9445 87.3637 83.1135 91.7287 83.1135C96.5427 83.1135 97.0997 79.7905 97.0997 77.2915V68.0795H94.9487V69.6575H94.7197L94.6047 69.5085C93.8677 68.5475 92.1747 68.0795 90.4697 68.0795L90.4657 68.0805ZM94.7207 73.0735C94.7207 74.5875 94.3317 76.3245 91.3027 76.3245C90.8543 76.3721 90.401 76.3224 89.9735 76.1788C89.5461 76.0353 89.1546 75.8012 88.8258 75.4927C88.4971 75.1841 88.2387 74.8083 88.0683 74.3908C87.898 73.9733 87.8197 73.524 87.8387 73.0735C87.8387 72.3105 88.0887 69.8215 91.3067 69.8215C93.5767 69.8205 94.7247 70.9155 94.7247 73.0725L94.7207 73.0735ZM100.271 66.5215V64.6915H98.1347V66.5215H100.271ZM100.271 77.9665V68.0495H98.1347V77.9655L100.271 77.9665ZM108.731 67.9875L103.457 73.1935V64.8935H101.321V77.9335H103.457V76.0705L105.981 73.5865L109.149 77.9655H111.825L107.548 72.0495L111.679 67.9865L108.731 67.9875ZM121.497 65.4525H118.961L123.481 77.9655H127.093L131.61 65.4505H129.073L125.45 76.0815H125.126L121.497 65.4525ZM134.417 66.5225V64.6925H132.281V66.5225H134.417ZM134.417 77.9675V68.0495H132.281V77.9655L134.417 77.9675ZM137.61 70.7815C137.61 70.5635 137.724 69.6475 139.962 69.6475C141.652 69.6475 142.616 70.2475 142.741 70.8655H144.954C144.806 68.9075 143.128 67.9145 139.961 67.9145C136.905 67.9145 135.355 68.8925 135.356 70.8195C135.356 74.6325 143.014 73.2395 143.014 75.0375C143.01 76.2655 141.074 76.2655 140.344 76.2655C138.959 76.2655 137.566 75.9955 137.361 75.0135H135.11C135.11 76.8105 136.844 77.9655 140.422 77.9655C144.03 77.9655 145.248 76.8105 145.248 75.1655C145.248 71.4415 137.607 72.9785 137.608 70.7855L137.61 70.7815ZM148.727 75.4575C148.458 75.1343 148.258 74.7602 148.137 74.3575C148.017 73.9549 147.979 73.5321 148.027 73.1145V67.9855H145.896V72.9755C145.896 75.1175 146.34 77.9655 150.177 77.9655C150.869 78.0274 151.566 77.9317 152.216 77.6854C152.866 77.4391 153.452 77.0487 153.93 76.5435L154.045 76.3875H154.294V77.9655H156.444V67.9855H154.294V72.6155C154.294 73.4665 154.294 76.2255 151.019 76.2255C150.605 76.257 150.188 76.2053 149.795 76.0734C149.401 75.9415 149.037 75.7321 148.726 75.4575H148.727ZM162.041 67.9785C157.851 67.9785 157.398 71.4695 157.398 72.9715C157.398 74.1425 157.732 77.9645 162.032 77.9645C163.793 77.9645 165.5 77.5215 166.208 76.6125L166.323 76.4645H166.478V77.9655H168.628V67.9795H166.478V69.5575H166.29L166.175 69.4085C165.439 68.4475 163.745 67.9795 162.04 67.9795L162.041 67.9785ZM166.296 73.1125C166.296 74.9125 165.328 76.2235 162.878 76.2235C159.578 76.2235 159.414 73.9735 159.414 72.9725C159.414 71.9715 159.637 69.7215 162.855 69.7215C163.313 69.6766 163.776 69.7331 164.21 69.887C164.645 70.0409 165.04 70.2883 165.368 70.6119C165.696 70.9354 165.949 71.3271 166.109 71.7593C166.268 72.1914 166.331 72.6534 166.293 73.1125H166.296ZM171.771 77.9655V64.9445H169.635V77.9655H171.771ZM185.264 75.7785C182.583 75.7785 181.045 74.2555 181.045 71.5985C181.045 68.9415 182.583 67.4185 185.264 67.4185C187.364 67.4185 188.564 68.0705 189.091 69.5265H191.384C190.992 67.0155 188.491 65.2335 185.264 65.2335C184.414 65.176 183.562 65.3014 182.765 65.6013C181.968 65.9012 181.244 66.3687 180.643 66.9721C180.042 67.5755 179.577 68.3008 179.281 69.0991C178.984 69.8974 178.862 70.75 178.923 71.5995C178.923 75.5265 181.353 77.9655 185.264 77.9655C188.532 77.9655 190.933 76.2575 191.377 73.6725H189.085C188.571 75.1075 187.347 75.7785 185.264 75.7785ZM197.672 67.7785C194.96 67.7785 192.063 69.1155 192.063 72.8695C192.063 76.6235 194.96 77.9655 197.672 77.9655C201.185 77.9655 203.281 76.0655 203.281 72.8745C203.281 69.1205 200.381 67.7835 197.672 67.7835V67.7785ZM197.672 76.0645C195.41 76.0655 194.163 74.9345 194.163 72.8745C194.163 70.8145 195.41 69.6745 197.672 69.6745C199.902 69.6745 201.181 70.8385 201.181 72.8745C201.181 74.8745 199.869 76.0745 197.672 76.0745V76.0645ZM217.852 67.9795C215.195 67.9795 214.3 68.8795 213.714 69.6725L213.523 69.3985C213.135 68.8998 212.626 68.508 212.045 68.2598C211.464 68.0115 210.829 67.9151 210.201 67.9795C209.505 67.9157 208.804 68.0105 208.15 68.2568C207.496 68.5031 206.906 68.8945 206.426 69.4015L206.31 69.5655H206.11V68.0655H203.979V77.9655H206.11V73.8415C206.11 72.7245 206.11 69.7255 209.173 69.7255C209.688 69.67 210.208 69.7629 210.672 69.9932C211.137 70.2235 211.525 70.5817 211.793 71.0255C212.075 71.6247 212.203 72.2851 212.165 72.9465V77.9655H214.296V72.7745C214.315 71.9676 214.646 71.1995 215.219 70.6311C215.792 70.0627 216.563 69.7382 217.37 69.7255C217.885 69.6699 218.405 69.7627 218.869 69.993C219.334 70.2234 219.722 70.5816 219.99 71.0255C220.272 71.6247 220.4 72.2851 220.362 72.9465V77.9655H222.493V72.9755C222.496 70.8315 222.045 67.9845 217.853 67.9845L217.852 67.9795ZM237.184 67.9795C234.527 67.9795 233.632 68.8795 233.046 69.6725L232.855 69.3985C232.467 68.8998 231.958 68.508 231.377 68.2598C230.796 68.0115 230.161 67.9151 229.533 67.9795C228.837 67.9157 228.136 68.0105 227.482 68.2568C226.828 68.5031 226.238 68.8945 225.758 69.4015L225.643 69.5565H225.443V68.0655H223.31V77.9655H225.446V73.8415C225.446 72.7245 225.446 69.7255 228.509 69.7255C229.024 69.67 229.544 69.7629 230.008 69.9932C230.473 70.2235 230.861 70.5817 231.129 71.0255C231.411 71.6247 231.539 72.2851 231.501 72.9465V77.9655H233.632V72.7745C233.651 71.9668 233.982 71.1978 234.556 70.6291C235.13 70.0604 235.902 69.7362 236.71 69.7245C237.225 69.6689 237.745 69.7617 238.209 69.992C238.674 70.2224 239.062 70.5806 239.33 71.0245C239.612 71.6237 239.74 72.2841 239.702 72.9455V77.9655H241.833V72.9755C241.828 70.8315 241.377 67.9845 237.185 67.9845L237.184 67.9795ZM245.384 75.4525C245.115 75.1293 244.915 74.7552 244.794 74.3525C244.674 73.9499 244.636 73.5271 244.684 73.1095V67.9855H242.553V72.9755C242.553 75.1175 242.997 77.9655 246.834 77.9655C247.526 78.0274 248.223 77.9317 248.873 77.6854C249.523 77.4391 250.109 77.0487 250.587 76.5435L250.702 76.3875H250.951V77.9655H253.101V67.9855H250.951V72.6155C250.951 73.4665 250.951 76.2255 247.676 76.2255C247.262 76.257 246.845 76.2053 246.452 76.0734C246.058 75.9415 245.694 75.7321 245.383 75.4575L245.384 75.4525ZM256.616 69.4065L256.502 69.5625H256.295V67.9865H254.145V77.9655H256.294V73.1655C256.294 72.3145 256.294 69.7245 259.569 69.7245C259.983 69.693 260.399 69.7447 260.792 69.8766C261.186 70.0085 261.549 70.2179 261.861 70.4925C262.129 70.8156 262.33 71.1896 262.45 71.592C262.57 71.9945 262.608 72.4171 262.561 72.8345V77.9655H264.692V72.9755C264.692 70.8325 264.247 67.9855 260.411 67.9855C259.711 67.9242 259.007 68.0199 258.35 68.2658C257.692 68.5116 257.098 68.9014 256.611 69.4065H256.616ZM267.873 66.5205V64.6905H265.737V66.5205H267.873ZM267.873 77.9655V68.0495H265.737V77.9655H267.873ZM277.028 71.2315H279.273C278.866 69.2045 276.938 67.9655 274.129 67.9655C270.879 67.9655 268.779 69.9295 268.779 72.9655C268.779 76.0015 270.879 77.9655 274.129 77.9655C276.959 77.9655 278.888 76.7255 279.276 74.6985H277.021C276.521 75.5445 275.714 75.9495 274.129 75.9495C272.164 75.9495 270.974 75.0495 270.974 72.9645C270.974 70.9345 272.025 69.9465 274.129 69.9465C275.71 69.9475 276.521 70.3275 277.028 71.2315ZM284.582 67.9785C280.392 67.9785 279.939 71.4695 279.939 72.9715C279.939 74.1425 280.273 77.9645 284.573 77.9645C286.334 77.9645 288.041 77.5215 288.749 76.6125L288.864 76.4645H289.019V77.9655H291.169V67.9795H289.019V69.5575H288.831L288.716 69.4085C287.98 68.4465 286.287 67.9795 284.582 67.9795V67.9785ZM288.837 73.1125C288.837 74.9125 287.869 76.2235 285.419 76.2235C282.119 76.2235 281.955 73.9735 281.955 72.9725C281.955 71.9715 282.178 69.7215 285.396 69.7215C285.855 69.6762 286.318 69.7323 286.752 69.886C287.187 70.0396 287.582 70.287 287.911 70.6106C288.239 70.9342 288.492 71.3261 288.652 71.7585C288.812 72.1908 288.875 72.6531 288.837 73.1125ZM295.674 75.7655C295.523 75.5846 295.41 75.3754 295.342 75.1503C295.273 74.9252 295.25 74.6886 295.274 74.4545V74.0715V69.7015H298.93V68.0125H295.271V64.9125H293.289V68.0125H291.855V69.7025H293.289V74.3905C293.289 76.3465 293.479 77.9655 295.822 77.9655C296.859 77.9869 297.896 77.9425 298.928 77.8325V75.8815C298.928 75.8815 296.174 76.2575 295.675 75.7695L295.674 75.7655ZM301.874 66.5175V64.6875H299.738V66.5175H301.874ZM301.874 77.9625V68.0495H299.738V77.9655L301.874 77.9625ZM308.354 67.7805C305.642 67.7805 302.745 69.1175 302.745 72.8715C302.745 76.6255 305.642 77.9655 308.354 77.9655C311.866 77.9655 313.963 76.0655 313.963 72.8745C313.964 69.1205 311.066 67.7835 308.354 67.7835V67.7805ZM308.354 76.0665C306.091 76.0665 304.845 74.9315 304.845 72.8665C304.845 70.8015 306.091 69.6665 308.354 69.6665C310.584 69.6665 311.863 70.8305 311.863 72.8665C311.863 74.8755 310.551 76.0665 308.354 76.0665ZM317.239 69.4035L317.125 69.5595H316.918V67.9865H314.769V77.9655H316.918V73.1655C316.918 72.3145 316.918 69.7245 320.193 69.7245C320.607 69.693 321.023 69.7447 321.416 69.8766C321.81 70.0085 322.173 70.2179 322.485 70.4925C322.753 70.8156 322.954 71.1896 323.074 71.592C323.194 71.9945 323.232 72.4171 323.185 72.8345V77.9655H325.316V72.9755C325.316 70.8325 324.871 67.9855 321.035 67.9855C320.335 67.9242 319.631 68.0199 318.974 68.2658C318.316 68.5116 317.722 68.9014 317.235 69.4065L317.239 69.4035ZM332.462 65.4475V77.9655H337.795C343.159 77.9655 343.96 74.0495 343.96 71.7155C343.96 69.3815 343.16 65.4505 337.796 65.4505L332.462 65.4475ZM341.73 71.7155C341.73 73.7345 340.7 76.0915 337.796 76.0915H334.596V67.3245H337.801C340.697 67.3245 341.73 69.5925 341.73 71.7155ZM346.623 73.4365H355.389C355.485 72.6024 355.375 71.7574 355.067 70.9763C354.758 70.1952 354.263 69.5022 353.623 68.9585L353.423 68.8215C352.408 68.1614 351.214 67.8313 350.004 67.8765C346.527 67.8765 344.612 69.6685 344.612 72.9215C344.61 76.2205 346.88 77.9655 350.01 77.9655C352.11 77.9655 354.67 77.4365 355.245 74.9915H353.122C352.675 75.7815 351.629 76.1805 350.01 76.1805C347.545 76.1805 346.622 74.5965 346.622 73.4365H346.623ZM350.01 69.6605C352.128 69.6605 353.362 70.9085 353.362 72.0035H346.662C346.655 70.9655 347.887 69.6605 350.01 69.6605ZM358.346 70.7815C358.346 70.5635 358.46 69.6475 360.698 69.6475C362.388 69.6475 363.352 70.2475 363.477 70.8655H365.69C365.542 68.9075 363.864 67.9145 360.697 67.9145C357.641 67.9145 356.091 68.8925 356.092 70.8195C356.092 74.6325 363.75 73.2395 363.75 75.0375C363.75 76.2645 361.813 76.2645 361.083 76.2645C359.698 76.2645 358.305 75.9945 358.1 75.0125H355.85C355.85 76.8125 357.583 77.9655 361.161 77.9655C364.769 77.9655 365.987 76.8105 365.987 75.1655C365.981 71.4385 358.341 72.9755 358.341 70.7815H358.346ZM368.983 66.5205V64.6905H366.847V66.5205H368.983ZM368.983 77.9655V68.0495H366.847V77.9655H368.983ZM374.604 68.0795C370.414 68.0795 369.961 71.5705 369.961 73.0725C369.961 74.2435 370.295 78.0655 374.595 78.0655C376.356 78.0655 378.063 77.6225 378.772 76.7135L378.887 76.5665H379.087V77.7295C379.087 80.0395 377.908 81.3635 375.852 81.3635C373.565 81.3635 372.893 80.3115 372.696 79.6745H370.51C370.637 80.9445 371.494 83.1135 375.859 83.1135C380.673 83.1135 381.23 79.7905 381.23 77.2915V68.0795H379.079V69.6575H378.85L378.735 69.5085C377.998 68.5475 376.305 68.0795 374.6 68.0795H374.604ZM378.859 73.0725C378.859 74.5865 378.47 76.3235 375.441 76.3235C374.992 76.3711 374.539 76.3214 374.112 76.1778C373.684 76.0343 373.293 75.8002 372.964 75.4917C372.635 75.1831 372.377 74.8073 372.206 74.3898C372.036 73.9723 371.958 73.523 371.977 73.0725C371.977 72.3095 372.227 69.8205 375.445 69.8205C377.71 69.8205 378.855 70.9155 378.855 73.0725H378.859ZM384.744 69.4055L384.63 69.5615H384.423V67.9865H382.274V77.9655H384.423V73.1655C384.423 72.3145 384.423 69.7245 387.698 69.7245C388.112 69.693 388.528 69.7447 388.921 69.8766C389.315 70.0085 389.678 70.2179 389.99 70.4925C390.258 70.8156 390.459 71.1896 390.579 71.592C390.699 71.9945 390.737 72.4171 390.69 72.8345V77.9655H392.821V72.9755C392.821 70.8325 392.376 67.9855 388.54 67.9855C387.84 67.9242 387.136 68.0199 386.479 68.2658C385.821 68.5116 385.227 68.9014 384.74 69.4065L384.744 69.4055ZM31.9557 95.4555C31.4947 96.9975 30.1267 97.7785 27.8917 97.7785C25.1387 97.7785 23.4917 96.2165 23.4917 93.5985C23.4917 90.9805 25.1347 89.4185 27.8917 89.4185C29.7247 89.4185 30.9387 89.9185 31.5917 90.9385H34.0407C33.3407 88.7655 30.8407 87.2325 27.8897 87.2325C23.9297 87.2325 21.3707 89.7325 21.3707 93.5985C21.3707 97.4645 23.9277 99.9655 27.8877 99.9655C29.7877 99.9655 31.3607 98.9655 31.7237 98.0315L31.8167 97.7895H32.1087V99.8575H34.2377V93.0175H28.1777V94.9655H32.0967L31.9557 95.4555ZM37.8267 91.3725L37.7157 91.5625H37.4387V89.9855H35.2867V99.9655H37.4387V95.5275C37.4387 93.8275 38.2757 92.0025 40.6267 92.0025C41.1702 92.0028 41.7124 92.0557 42.2457 92.1605L42.5817 90.1695C42.0996 90.0527 41.6058 89.9906 41.1097 89.9845C39.4307 89.9855 38.3697 90.4325 37.8227 91.3735L37.8267 91.3725ZM47.2377 89.9785C43.0477 89.9785 42.5947 93.4695 42.5947 94.9715C42.5947 96.1425 42.9287 99.9645 47.2287 99.9645C48.9897 99.9645 50.6967 99.5215 51.4047 98.6125L51.5197 98.4645H51.6747V99.9655H53.8247V89.9795H51.6747V91.5575H51.4867L51.3717 91.4085C50.6317 90.4465 48.9387 89.9795 47.2337 89.9795L47.2377 89.9785ZM51.4927 95.1125C51.4927 96.9125 50.5247 98.2235 48.0747 98.2235C44.7747 98.2235 44.6107 95.9735 44.6107 94.9725C44.6107 93.9715 44.8337 91.7215 48.0517 91.7215C48.5102 91.6768 48.9729 91.7334 49.407 91.8874C49.8412 92.0413 50.2362 92.2888 50.5641 92.6123C50.892 92.9358 51.1448 93.3275 51.3046 93.7595C51.4644 94.1916 51.5272 94.6535 51.4887 95.1125H51.4927ZM59.3157 89.9785C55.1257 89.9785 54.6727 93.4695 54.6727 94.9715C54.6727 96.1425 55.0067 99.9645 59.3067 99.9645C61.0677 99.9645 62.7747 99.5215 63.4827 98.6125L63.5977 98.4645H63.7527V99.9655H65.9027V86.8895H63.7527V91.5585H63.5647L63.4497 91.4095C62.7097 90.4465 61.0167 89.9795 59.3097 89.9795L59.3157 89.9785ZM63.5707 95.1125C63.5707 96.9125 62.6027 98.2235 60.1527 98.2235C56.8527 98.2235 56.6887 95.9735 56.6887 94.9725C56.6887 93.9715 56.9117 91.7215 60.1297 91.7215C60.5881 91.677 61.0508 91.7337 61.4848 91.8877C61.9189 92.0417 62.3139 92.2892 62.6417 92.6127C62.9696 92.9362 63.2224 93.3278 63.3822 93.7597C63.5421 94.1917 63.6051 94.6535 63.5667 95.1125H63.5707ZM69.7797 97.4575C69.5111 97.1343 69.3107 96.7602 69.1904 96.3575C69.0701 95.9549 69.0324 95.5321 69.0797 95.1145V89.9855H66.9487V94.9755C66.9487 97.1175 67.3927 99.9655 71.2297 99.9655C71.9221 100.027 72.6194 99.9317 73.2695 99.6854C73.9195 99.4391 74.5052 99.0487 74.9827 98.5435L75.0977 98.3875H75.3467V99.9655H77.4967V89.9855H75.3467V94.6155C75.3467 95.4665 75.3467 98.2255 72.0717 98.2255C71.6571 98.2574 71.2403 98.2059 70.8459 98.074C70.4516 97.9421 70.0877 97.7325 69.7757 97.4575H69.7797ZM83.0937 89.9785C78.9037 89.9785 78.4507 93.4695 78.4507 94.9715C78.4507 96.1425 78.7847 99.9645 83.0847 99.9645C84.8457 99.9645 86.5527 99.5215 87.2607 98.6125L87.3757 98.4645H87.5307V99.9655H89.6807V89.9795H87.5307V91.5575H87.3427L87.2277 91.4085C86.4877 90.4465 84.7947 89.9795 83.0897 89.9795L83.0937 89.9785ZM87.3487 95.1125C87.3487 96.9125 86.3807 98.2235 83.9307 98.2235C80.6307 98.2235 80.4667 95.9735 80.4667 94.9725C80.4667 93.9715 80.6897 91.7215 83.9077 91.7215C84.3662 91.6768 84.8289 91.7334 85.263 91.8874C85.6972 92.0413 86.0922 92.2888 86.4201 92.6123C86.748 92.9358 87.0008 93.3275 87.1606 93.7595C87.3204 94.1916 87.3832 94.6535 87.3447 95.1125H87.3487ZM94.1867 97.7685C94.0362 97.5876 93.9233 97.3784 93.8546 97.1533C93.7859 96.9282 93.7628 96.6916 93.7867 96.4575V96.0745V91.7015H97.4427V90.0125H93.7867V86.9125H91.8037V90.0125H90.3697V91.7025H91.8037V96.3905C91.8037 98.3465 91.9937 99.9655 94.3367 99.9655C95.3738 99.9869 96.4112 99.9425 97.4427 99.8325V97.8815C97.4427 97.8815 94.6817 98.2575 94.1817 97.7655L94.1867 97.7685ZM100.387 88.5205V86.6905H98.2507V88.5205H100.387ZM100.387 99.9655V90.0495H98.2507V99.9655H100.387ZM106.867 89.7835C104.155 89.7835 101.258 91.1205 101.258 94.8745C101.258 98.6285 104.15 99.9655 106.862 99.9655C110.374 99.9655 112.471 98.0655 112.471 94.8745C112.472 91.1205 109.574 89.7835 106.862 89.7835H106.867ZM106.867 98.0695C104.604 98.0695 103.358 96.9345 103.358 94.8695C103.358 92.8045 104.604 91.6695 106.867 91.6695C109.097 91.6695 110.376 92.8335 110.376 94.8695C110.371 96.8755 109.059 98.0655 106.862 98.0655L106.867 98.0695ZM115.752 91.4065L115.638 91.5625H115.431V89.9865H113.282V99.9655H115.431V95.1655C115.431 94.3145 115.431 91.7245 118.706 91.7245C119.12 91.693 119.536 91.7447 119.929 91.8766C120.323 92.0085 120.686 92.2179 120.998 92.4925C121.266 92.8156 121.467 93.1896 121.587 93.592C121.707 93.9945 121.745 94.4171 121.698 94.8345V99.9655H123.829V94.9755C123.829 92.8325 123.384 89.9855 119.548 89.9855C118.848 89.9242 118.144 90.0199 117.487 90.2658C116.829 90.5116 116.235 90.9014 115.748 91.4065H115.752ZM140.508 96.2225C140.508 97.9355 138.529 98.1325 137.04 98.1325C136.035 98.1325 133.447 98.1325 133.195 95.8145H130.976C130.968 96.6483 131.225 97.4631 131.71 98.1415C132.633 99.3515 134.457 99.9655 137.127 99.9655C141.279 99.9655 142.827 98.6425 142.827 96.2205C142.827 91.4995 133.469 93.3995 133.469 90.9705C133.469 90.4215 133.769 89.1455 136.59 89.1455C139.298 89.1455 139.975 90.4455 140.098 91.4325H142.379C142.262 89.7325 141.279 87.2845 136.589 87.2845C131.635 87.2845 131.25 90.0845 131.25 90.9435C131.247 95.5025 140.503 93.3655 140.503 96.2225H140.508ZM150.133 89.9785C148.499 89.9785 146.857 90.4445 146.155 91.4015L146.041 91.5575H145.834V86.8895H143.684V99.9655H145.834V95.1655C145.781 94.6992 145.834 94.227 145.989 93.7841C146.144 93.3413 146.397 92.9392 146.73 92.608C147.062 92.2769 147.465 92.0252 147.909 91.8719C148.352 91.7185 148.825 91.6675 149.291 91.7225C149.727 91.6674 150.171 91.7142 150.587 91.8593C151.002 92.0044 151.379 92.2438 151.686 92.5588C151.994 92.8738 152.224 93.2557 152.359 93.6747C152.494 94.0936 152.53 94.5382 152.465 94.9735V99.9655H154.597V94.9725C154.597 91.6595 153.097 89.9795 150.134 89.9795L150.133 89.9785ZM161.065 89.7785C158.353 89.7785 155.456 91.1155 155.456 94.8695C155.456 98.6235 158.348 99.9655 161.06 99.9655C164.572 99.9655 166.669 98.0655 166.669 94.8745C166.67 91.1205 163.772 89.7835 161.06 89.7835L161.065 89.7785ZM161.065 98.0645C158.802 98.0645 157.556 96.9295 157.556 94.8645C157.556 92.7995 158.802 91.6645 161.065 91.6645C163.295 91.6645 164.574 92.8285 164.574 94.8645C164.569 96.8755 163.257 98.0655 161.06 98.0655L161.065 98.0645ZM175.665 89.9815H173.731L171.015 98.2815L168.242 89.9815H166.273L169.41 99.9655H172.447L174.693 92.6815L176.941 99.9655H179.977L183.12 89.9865H181.15L178.377 98.2865L175.665 89.9815ZM182.137 97.5895C181.966 97.5817 181.795 97.6085 181.635 97.6682C181.475 97.728 181.328 97.8195 181.205 97.9373C181.081 98.055 180.982 98.1966 180.914 98.3536C180.846 98.5105 180.811 98.6795 180.81 98.8505C180.802 99.0228 180.828 99.1949 180.887 99.3569C180.946 99.5189 181.037 99.6677 181.154 99.7945C181.371 99.9477 181.634 100.024 181.9 100.01C182.031 100.005 182.162 99.9822 182.287 99.9415V100.047C182.157 100.557 181.889 101.022 181.511 101.389C181.568 101.479 181.619 101.561 181.711 101.729C182.212 101.529 182.644 101.186 182.952 100.743C183.261 100.3 183.432 99.7762 183.445 99.2365C183.445 98.2365 182.927 97.5935 182.124 97.5935L182.137 97.5895ZM190.569 89.8655H195.33V99.9655H198.07V89.8655H202.832V87.3655H190.569V89.8655ZM210.221 89.8585C209.552 89.7932 208.877 89.8946 208.257 90.1535C207.637 90.4125 207.091 90.8209 206.667 91.3425H206.538V86.9555H203.799V99.9655H206.539V95.0925C206.489 94.7017 206.53 94.3047 206.657 93.9321C206.785 93.5594 206.997 93.2211 207.276 92.9432C207.555 92.6653 207.895 92.4551 208.268 92.329C208.641 92.2028 209.038 92.164 209.429 92.2155C209.792 92.1625 210.163 92.1965 210.511 92.3148C210.859 92.433 211.174 92.632 211.43 92.8955C211.686 93.1591 211.876 93.4796 211.984 93.8307C212.092 94.1818 212.115 94.5536 212.052 94.9155V99.9655H214.776V94.9125C214.776 93.4395 214.493 89.8595 210.221 89.8595V89.8585ZM226.198 95.5485H226.298C226.456 94.6386 226.355 93.7026 226.007 92.8474C225.658 91.9921 225.077 91.252 224.328 90.7115C223.313 90.0515 222.119 89.7211 220.91 89.7655C217.498 89.7655 215.482 91.5655 215.482 94.8655C215.482 98.2265 217.449 99.9655 220.91 99.9655C224.227 99.9655 225.981 98.6195 226.261 96.4515H223.61C223.358 97.1145 222.548 97.5695 220.91 97.5695C219.138 97.5695 218.33 96.9005 218.143 95.5505H226.199L226.198 95.5485ZM220.91 92.1595C222.86 92.1595 223.355 92.9835 223.579 93.7405H218.247C218.563 92.7175 219.395 92.1595 220.91 92.1595ZM243.977 87.3655V87.3775H243.13L240.619 97.4595H240.368L237.858 87.3775H237.193V87.3655H233.157V99.9655H235.897V90.5865H236.164L238.567 99.9655H242.505L244.905 90.5865H245.172V99.9655H247.91V87.3655H243.977ZM259.61 95.5495H259.71C259.868 94.6396 259.767 93.7036 259.419 92.8484C259.07 91.9931 258.489 91.253 257.74 90.7125C256.725 90.0502 255.531 89.7176 254.321 89.7605C250.909 89.7605 248.893 91.5605 248.893 94.8605C248.893 98.2215 250.859 99.9605 254.321 99.9605C257.638 99.9605 259.392 98.6145 259.672 96.4465H257.015C256.763 97.1095 255.953 97.5645 254.315 97.5645C252.543 97.5645 251.735 96.8955 251.548 95.5455H259.61V95.5495ZM254.321 92.1595C256.271 92.1595 256.766 92.9835 256.99 93.7405H251.655C251.971 92.7175 252.803 92.1595 254.317 92.1595H254.321ZM268.969 86.9595V91.3475H268.81C268.357 90.8213 267.785 90.4117 267.141 90.1534C266.497 89.8951 265.8 89.7957 265.11 89.8635C260.838 89.8635 260.386 93.4435 260.386 94.9165C260.386 96.2775 260.863 99.9695 265.102 99.9695C267.002 99.9695 268.152 99.4375 268.836 98.5595H268.961V99.9655H271.71V86.9555L268.969 86.9595ZM265.902 97.6095C265.527 97.6551 265.147 97.6183 264.788 97.5017C264.429 97.385 264.1 97.1913 263.824 96.9341C263.547 96.6769 263.331 96.3624 263.189 96.0127C263.047 95.663 262.983 95.2865 263.002 94.9095C263.002 94.1235 263.279 92.2095 265.902 92.2095C268.267 92.2095 268.751 93.5385 268.751 94.9095C268.751 96.4375 268.268 97.6095 265.898 97.6095H265.902ZM275.41 99.9655V89.9255H272.685V99.9655H275.41ZM275.41 89.2075V86.7655H272.685V89.2045L275.41 89.2075ZM284.268 89.8655V94.7355C284.268 96.1035 283.912 97.6105 281.549 97.6105C278.927 97.6105 279.096 95.7005 279.096 94.9105V89.8655H276.375V94.9155C276.375 96.3885 276.489 99.9655 280.759 99.9655C281.403 100.033 282.053 99.9318 282.646 99.6718C283.24 99.4117 283.755 99.0019 284.142 98.4825H284.271V99.9655H287.01V89.8655H284.268ZM301.725 89.8655C299.2 89.8655 298.39 90.4585 297.737 91.3485H297.61V91.3535C297.214 90.8352 296.692 90.4265 296.094 90.1661C295.496 89.9057 294.842 89.8022 294.193 89.8655C293.552 89.7978 292.904 89.899 292.314 90.1592C291.724 90.4193 291.213 90.8294 290.831 91.3485H290.71V89.9485H287.985V99.9655H290.71V95.0955C290.71 93.7275 290.866 92.2205 293.229 92.2205C295.714 92.2205 295.682 94.1305 295.682 94.9205V99.9655H298.41V95.0505L298.42 95.0955C298.42 93.7275 298.576 92.2205 300.94 92.2205C303.425 92.2205 303.393 94.1305 303.393 94.9205V99.9655H306.11V94.9155C306.11 93.4435 305.996 89.8655 301.726 89.8655H301.725ZM318.87 92.3275C316.764 91.9855 316.021 91.7355 316.021 91.0675C316.021 90.4595 316.503 89.6935 318.621 89.6935C321.226 89.6935 321.614 90.9935 321.614 91.8655H324.489C324.489 89.9465 323.513 87.2095 318.621 87.2095C314.51 87.2095 313.193 89.2635 313.193 91.0425C313.193 93.3425 314.886 94.1285 318.651 94.6835C321.12 95.0475 321.981 95.1965 321.981 96.0535C321.981 97.0295 321.119 97.5075 319.048 97.5075C317.412 97.5075 315.738 97.2075 315.738 95.3075H312.927C312.927 96.5265 312.927 99.9665 319.134 99.9665C322.818 99.9665 324.901 99.1805 324.901 96.0525C324.91 93.2015 321.696 92.7865 318.872 92.3275H318.87ZM332.27 89.8785C331.579 89.811 330.883 89.9106 330.239 90.1689C329.595 90.4272 329.022 90.8366 328.57 91.3625H328.416V89.8775H325.676V103.817H328.416V98.5735H328.54C329.224 99.4515 330.376 99.9835 332.274 99.9835C336.513 99.9835 336.99 96.2905 336.99 94.9305C336.993 93.4585 336.541 89.8775 332.268 89.8775L332.27 89.8785ZM331.483 97.6285C329.113 97.6285 328.63 96.4605 328.63 94.9285C328.63 93.5605 329.113 92.2285 331.479 92.2285C334.102 92.2285 334.379 94.1395 334.379 94.9285C334.397 95.3052 334.333 95.6813 334.191 96.0307C334.049 96.38 333.833 96.6942 333.557 96.9512C333.281 97.2082 332.952 97.4019 332.593 97.5187C332.235 97.6355 331.855 97.6726 331.481 97.6275L331.483 97.6285ZM345.925 91.3445C345.472 90.8184 344.9 90.4088 344.256 90.1505C343.612 89.8922 342.915 89.7928 342.225 89.8605C337.953 89.8605 337.501 93.4405 337.501 94.9135C337.501 96.2745 337.978 99.9665 342.217 99.9665C344.117 99.9665 345.267 99.4345 345.951 98.5565H346.037V99.9655H348.778V89.8595H346.037V91.3435L345.925 91.3445ZM343.015 97.6105C342.64 97.6561 342.26 97.6193 341.901 97.5027C341.542 97.386 341.213 97.1923 340.937 96.9351C340.66 96.6779 340.444 96.3635 340.302 96.0137C340.16 95.664 340.096 95.2875 340.115 94.9105C340.115 94.1245 340.392 92.2105 343.015 92.2105C345.38 92.2105 345.864 93.5395 345.864 94.9105C345.864 96.4395 345.381 97.6105 343.011 97.6105H343.015ZM357.371 96.1765C357.171 96.8815 356.545 97.5055 354.809 97.5055C353.037 97.5055 352.102 96.7055 352.102 94.9055C352.102 93.1835 353.037 92.3055 354.809 92.3055C356.483 92.3055 357.159 92.8785 357.378 93.6345H360.059C359.835 91.2345 357.701 89.8445 354.809 89.8445C351.833 89.8445 349.421 91.6325 349.421 94.9055C349.421 98.2395 351.833 99.9655 354.809 99.9655C357.701 99.9655 359.853 98.6105 360.059 96.1755L357.371 96.1765ZM371.352 95.5505H371.452C371.61 94.6406 371.509 93.7046 371.161 92.8494C370.812 91.9941 370.231 91.254 369.482 90.7135C368.468 90.0512 367.273 89.7186 366.063 89.7615C362.651 89.7615 360.635 91.5615 360.635 94.8615C360.635 98.2225 362.601 99.9615 366.063 99.9615C369.38 99.9615 371.134 98.6155 371.414 96.4475H368.761C368.509 97.1105 367.699 97.5655 366.061 97.5655C364.289 97.5655 363.481 96.8965 363.294 95.5465H371.35L371.352 95.5505ZM366.063 92.1605C368.013 92.1605 368.508 92.9845 368.732 93.7415H363.401C363.71 92.7175 364.547 92.1595 366.061 92.1595L366.063 92.1605Z" fill="#C3C6CB"/>
<path d="M54.8231 128.134C54.2869 128.162 53.7518 128.061 53.2623 127.841C52.7728 127.62 52.3431 127.286 52.0091 126.866C51.2705 125.757 50.9209 124.435 51.0151 123.107C50.9261 121.772 51.2751 120.445 52.0091 119.327C52.3377 118.898 52.7655 118.556 53.2557 118.33C53.7459 118.103 54.2838 117.999 54.8231 118.027C55.5255 118.003 56.2179 118.199 56.8041 118.587C57.3516 118.973 57.7846 119.5 58.0571 120.113L57.3711 120.519C57.1755 120.011 56.8376 119.571 56.3981 119.252C55.9369 118.931 55.3847 118.766 54.8231 118.783C54.4138 118.763 54.0058 118.842 53.6332 119.013C53.2606 119.183 52.9342 119.44 52.6811 119.763C52.1181 120.583 51.8469 121.569 51.9111 122.563V123.666C51.8451 124.646 52.1168 125.619 52.6811 126.424C52.9386 126.739 53.2667 126.989 53.6387 127.155C54.0107 127.32 54.4164 127.396 54.8231 127.376C55.4094 127.396 55.9858 127.22 56.4611 126.876C56.9085 126.532 57.2485 126.069 57.4411 125.539L58.1271 125.945C57.8625 126.588 57.4207 127.143 56.8531 127.545C56.2547 127.948 55.5447 128.154 54.8231 128.134V128.134ZM62.4811 128.134C62.0389 128.14 61.6001 128.054 61.1931 127.882C60.8137 127.716 60.4782 127.464 60.2131 127.147C59.9279 126.798 59.7139 126.397 59.5831 125.966C59.427 125.453 59.3515 124.919 59.3591 124.384C59.3511 123.85 59.4267 123.319 59.5831 122.809C59.7147 122.379 59.9287 121.98 60.2131 121.633C60.4792 121.314 60.8143 121.06 61.1931 120.891C61.599 120.713 62.0382 120.625 62.4811 120.632C62.924 120.625 63.3632 120.713 63.7691 120.891C64.1478 121.06 64.483 121.314 64.7491 121.633C65.0335 121.98 65.2474 122.379 65.3791 122.809C65.5355 123.319 65.611 123.85 65.6031 124.384C65.6107 124.919 65.5351 125.453 65.3791 125.966C65.2485 126.397 65.0344 126.799 64.7491 127.149C64.484 127.466 64.1484 127.718 63.7691 127.884C63.3619 128.056 62.9231 128.141 62.4811 128.134V128.134ZM62.4811 127.42C62.7886 127.435 63.0958 127.384 63.3821 127.271C63.6683 127.157 63.9268 126.984 64.1401 126.762C64.5816 126.219 64.7994 125.528 64.7491 124.83V123.93C64.7971 123.234 64.5794 122.546 64.1401 122.005C63.9279 121.781 63.6698 121.605 63.3834 121.49C63.097 121.376 62.7892 121.324 62.4811 121.34C62.1735 121.324 61.8663 121.375 61.5801 121.488C61.2938 121.602 61.0353 121.775 60.8221 121.998C60.3805 122.541 60.1627 123.232 60.2131 123.93V124.83C60.1651 125.525 60.3827 126.213 60.8221 126.755C61.0342 126.979 61.2924 127.154 61.5787 127.269C61.8651 127.384 62.1729 127.435 62.4811 127.42V127.42ZM67.4931 120.798H68.2931V121.946H68.3351C68.5052 121.553 68.7877 121.219 69.1471 120.987C69.5594 120.735 70.0366 120.611 70.5191 120.63C70.9324 120.61 71.3445 120.689 71.7216 120.859C72.0987 121.03 72.4302 121.287 72.6891 121.61C73.2586 122.417 73.5352 123.395 73.4731 124.382C73.5352 125.368 73.2586 126.346 72.6891 127.154C72.4302 127.476 72.0987 127.733 71.7216 127.904C71.3445 128.074 70.9324 128.153 70.5191 128.134C70.0409 128.153 69.5678 128.029 69.1611 127.777C68.8049 127.537 68.5196 127.205 68.3351 126.818H68.2931V130.766H67.4931V120.798ZM70.3351 127.42C70.6484 127.437 70.9617 127.384 71.2523 127.266C71.5429 127.147 71.8034 126.965 72.0151 126.734C72.4375 126.213 72.6513 125.555 72.6151 124.886V123.878C72.6513 123.208 72.4375 122.55 72.0151 122.03C71.8034 121.798 71.5429 121.616 71.2523 121.497C70.9617 121.379 70.6484 121.326 70.3351 121.344C70.0668 121.342 69.7999 121.382 69.5441 121.463C69.3102 121.535 69.0901 121.646 68.8931 121.792C68.7119 121.925 68.5615 122.095 68.4521 122.292C68.3444 122.489 68.2889 122.711 68.2911 122.936V125.778C68.2873 126.014 68.3426 126.247 68.4521 126.457C68.5606 126.659 68.7109 126.835 68.8931 126.975C69.0879 127.123 69.3086 127.235 69.5441 127.304C69.8006 127.381 70.0671 127.42 70.3351 127.42V127.42ZM79.6031 120.798H80.4151L77.0971 129.982C77.0248 130.222 76.8837 130.436 76.6911 130.598C76.4517 130.729 76.1792 130.787 75.9071 130.766H75.0951V130.066H76.2951L76.9811 128.176L74.3211 120.798H75.1611L77.3651 127.112H77.4211L79.6031 120.798ZM81.8851 127.966V120.798H82.6851V122.086H82.7411C82.8961 121.728 83.1423 121.418 83.4551 121.186C83.8742 120.9 84.3767 120.762 84.8831 120.794H85.3591V121.578H84.7291C84.2106 121.556 83.6978 121.693 83.2591 121.97C83.0771 122.086 82.9286 122.248 82.828 122.44C82.7274 122.631 82.6781 122.845 82.6851 123.062V127.966H81.8851ZM87.1351 118.852C87.0603 118.858 86.985 118.849 86.914 118.825C86.8429 118.8 86.7776 118.762 86.7221 118.712C86.6313 118.613 86.5834 118.482 86.5891 118.348V118.208C86.5834 118.073 86.6313 117.942 86.7221 117.844C86.7776 117.793 86.8429 117.755 86.914 117.731C86.985 117.706 87.0603 117.697 87.1351 117.704C87.2098 117.697 87.2851 117.706 87.3561 117.731C87.4272 117.755 87.4925 117.793 87.5481 117.844C87.6388 117.942 87.6867 118.073 87.6811 118.208V118.348C87.6867 118.482 87.6388 118.613 87.5481 118.712C87.4925 118.762 87.4272 118.8 87.3561 118.825C87.2851 118.849 87.2098 118.858 87.1351 118.852V118.852ZM86.7431 120.798H87.5431V127.966H86.7431V120.798ZM95.8851 128.806C95.9035 129.129 95.8314 129.451 95.6768 129.735C95.5222 130.02 95.2913 130.255 95.0101 130.416C94.2131 130.808 93.3278 130.987 92.4411 130.934C91.6237 130.995 90.8052 130.83 90.0751 130.458C89.8481 130.322 89.661 130.129 89.5331 129.898C89.4052 129.667 89.341 129.406 89.3471 129.142C89.3282 128.788 89.4416 128.44 89.6651 128.166C89.9108 127.904 90.2268 127.72 90.5751 127.634V127.518C90.3707 127.451 90.194 127.319 90.0725 127.142C89.951 126.965 89.8914 126.752 89.9031 126.538C89.8936 126.384 89.9204 126.231 89.9812 126.09C90.042 125.949 90.1351 125.824 90.2531 125.726C90.5103 125.527 90.8058 125.384 91.1211 125.306V125.25C90.7164 125.076 90.3744 124.783 90.1411 124.41C89.899 124.004 89.7776 123.538 89.7911 123.066C89.7866 122.726 89.8484 122.388 89.9731 122.072C90.0898 121.78 90.269 121.517 90.4981 121.302C90.7362 121.08 91.0173 120.91 91.3241 120.802C91.6681 120.681 92.0306 120.622 92.3951 120.627C92.8981 120.615 93.3954 120.736 93.8371 120.977V120.627C93.8288 120.439 93.8829 120.255 93.9911 120.102C94.0527 120.031 94.1301 119.976 94.217 119.941C94.3039 119.907 94.3978 119.893 94.4911 119.902H95.7231V120.602H94.2671V121.288C94.5093 121.502 94.7006 121.767 94.8271 122.065C94.9617 122.381 95.0298 122.721 95.0271 123.065C95.0316 123.405 94.9673 123.743 94.8381 124.059C94.7161 124.351 94.535 124.616 94.3061 124.836C94.0689 125.058 93.7875 125.229 93.4801 125.336C93.136 125.456 92.7735 125.515 92.4091 125.511C92.2825 125.511 92.1562 125.502 92.0311 125.483L91.6671 125.427C91.3943 125.494 91.1359 125.611 90.9041 125.77C90.8093 125.833 90.7322 125.92 90.6798 126.022C90.6273 126.123 90.6013 126.236 90.6041 126.351C90.6041 126.78 90.9867 126.995 91.7521 126.995H93.4181C94.0823 126.937 94.7463 127.108 95.3011 127.478C95.4944 127.639 95.6478 127.842 95.7492 128.073C95.8505 128.303 95.897 128.554 95.8851 128.806V128.806ZM95.1151 128.862C95.1215 128.706 95.0912 128.55 95.0268 128.408C94.9624 128.266 94.8655 128.141 94.7441 128.043C94.3467 127.803 93.8828 127.698 93.4211 127.743H91.0971C90.8155 127.826 90.5623 127.986 90.3651 128.204C90.1842 128.419 90.0895 128.693 90.0991 128.974C90.0973 129.154 90.1383 129.333 90.2186 129.494C90.2988 129.656 90.4162 129.797 90.5611 129.905C90.9728 130.182 91.466 130.313 91.9611 130.276H92.8611C93.432 130.304 94.0007 130.186 94.5131 129.933C94.704 129.83 94.8619 129.675 94.9684 129.486C95.075 129.297 95.1258 129.082 95.1151 128.866V128.862ZM92.4151 124.872C92.883 124.899 93.3445 124.752 93.7101 124.459C93.8697 124.31 93.9945 124.129 94.0756 123.927C94.1567 123.725 94.192 123.507 94.1791 123.29V122.842C94.1911 122.626 94.1553 122.411 94.0742 122.211C93.9931 122.012 93.8688 121.832 93.7101 121.687C93.3445 121.393 92.883 121.246 92.4151 121.274C91.9454 121.244 91.4817 121.392 91.1151 121.687C90.9582 121.834 90.8356 122.013 90.7558 122.213C90.6759 122.412 90.6409 122.627 90.6531 122.842V123.29C90.6401 123.507 90.6754 123.725 90.7565 123.927C90.8376 124.129 90.9624 124.31 91.1221 124.459C91.4866 124.751 91.9465 124.898 92.4131 124.872H92.4151ZM97.2731 117.606H98.0731V121.932H98.1151C98.2728 121.559 98.5294 121.237 98.8571 121.001C99.2628 120.733 99.7438 120.603 100.229 120.63C100.56 120.61 100.891 120.664 101.2 120.786C101.508 120.908 101.786 121.096 102.014 121.337C102.472 121.907 102.7 122.629 102.651 123.36V127.966H101.851V123.5C101.897 122.919 101.73 122.342 101.382 121.876C101.208 121.692 100.995 121.549 100.759 121.457C100.523 121.365 100.27 121.326 100.017 121.344C99.771 121.343 99.526 121.377 99.2891 121.444C99.0657 121.504 98.8548 121.604 98.6661 121.738C98.4845 121.868 98.3359 122.039 98.2321 122.238C98.1216 122.452 98.0662 122.69 98.0711 122.931V127.966H97.2711L97.2731 117.606ZM106.245 127.966C106.125 127.974 106.004 127.957 105.891 127.916C105.777 127.875 105.674 127.811 105.587 127.728C105.432 127.55 105.352 127.319 105.365 127.084V121.498H104.119V120.798H104.931C105.002 120.806 105.075 120.8 105.143 120.78C105.212 120.759 105.276 120.725 105.331 120.679C105.414 120.553 105.451 120.402 105.436 120.252V118.796H106.164V120.796H107.788V121.496H106.165V127.266H107.677V127.966H106.245ZM119.111 124.606C118.733 124.793 118.315 124.884 117.893 124.872C117.632 124.876 117.373 124.826 117.133 124.723C116.893 124.621 116.677 124.468 116.5 124.277C116.323 124.085 116.189 123.858 116.105 123.611C116.022 123.363 115.992 123.101 116.017 122.842C115.993 122.578 116.026 122.312 116.112 122.062C116.198 121.812 116.337 121.583 116.518 121.39C116.699 121.197 116.919 121.044 117.163 120.942C117.407 120.84 117.67 120.791 117.935 120.798C118.327 120.793 118.715 120.88 119.069 121.05L119.293 120.308C118.871 120.102 118.405 120.001 117.935 120.014C117.55 119.992 117.165 120.052 116.804 120.19C116.444 120.327 116.117 120.538 115.843 120.81C115.57 121.082 115.356 121.408 115.217 121.768C115.078 122.128 115.016 122.512 115.035 122.898C115.006 123.26 115.055 123.625 115.178 123.967C115.301 124.309 115.496 124.621 115.749 124.882C116.002 125.143 116.308 125.347 116.647 125.48C116.985 125.614 117.348 125.673 117.711 125.656C118.25 125.664 118.784 125.559 119.279 125.348L119.111 124.606ZM122.457 122.814C122.461 124.14 121.938 125.414 121.004 126.356C120.069 127.299 118.8 127.832 117.473 127.84C116.148 127.829 114.882 127.294 113.951 126.352C113.019 125.411 112.499 124.138 112.503 122.814C112.502 121.491 113.024 120.222 113.955 119.283C114.886 118.344 116.151 117.811 117.473 117.802C118.798 117.808 120.066 118.34 121 119.279C121.934 120.218 122.458 121.489 122.457 122.814V122.814ZM123.185 122.814C123.181 121.3 122.578 119.849 121.508 118.779C120.437 117.709 118.987 117.106 117.473 117.102C115.96 117.107 114.511 117.71 113.441 118.78C112.372 119.851 111.769 121.301 111.765 122.814C111.765 123.563 111.912 124.306 112.199 124.999C112.485 125.692 112.906 126.322 113.436 126.852C113.966 127.382 114.595 127.803 115.288 128.09C115.981 128.378 116.723 128.525 117.473 128.526C118.223 128.526 118.966 128.378 119.659 128.092C120.353 127.805 120.982 127.384 121.513 126.853C122.043 126.323 122.464 125.693 122.751 125C123.038 124.307 123.185 123.564 123.185 122.814V122.814ZM124.697 117.606H125.497V121.932H125.539C125.697 121.559 125.953 121.237 126.281 121.001C126.687 120.733 127.168 120.603 127.653 120.63C127.984 120.61 128.315 120.664 128.624 120.786C128.932 120.908 129.21 121.096 129.438 121.337C129.896 121.907 130.124 122.629 130.075 123.36V127.966H129.275V123.5C129.321 122.919 129.154 122.342 128.806 121.876C128.632 121.692 128.419 121.549 128.183 121.457C127.947 121.365 127.694 121.326 127.441 121.344C127.195 121.343 126.95 121.377 126.713 121.444C126.49 121.504 126.279 121.604 126.09 121.738C125.908 121.868 125.76 122.039 125.656 122.238C125.546 122.452 125.49 122.69 125.495 122.931V127.966H124.695L124.697 117.606ZM134.987 128.134C134.545 128.14 134.106 128.054 133.699 127.882C133.32 127.716 132.984 127.464 132.719 127.147C132.434 126.798 132.22 126.397 132.089 125.966C131.933 125.452 131.857 124.918 131.865 124.382C131.857 123.848 131.933 123.317 132.089 122.807C132.221 122.377 132.435 121.978 132.719 121.631C132.985 121.312 133.32 121.058 133.699 120.889C134.105 120.711 134.544 120.623 134.987 120.63C135.43 120.623 135.869 120.711 136.275 120.889C136.654 121.058 136.989 121.312 137.255 121.631C137.539 121.978 137.753 122.377 137.885 122.807C138.041 123.317 138.117 123.848 138.109 124.382C138.117 124.918 138.041 125.452 137.885 125.966C137.754 126.397 137.54 126.799 137.255 127.149C136.99 127.466 136.654 127.718 136.275 127.884C135.868 128.056 135.429 128.141 134.987 128.134V128.134ZM134.987 127.42C135.294 127.436 135.601 127.385 135.888 127.273C136.174 127.16 136.432 126.987 136.646 126.766C137.088 126.223 137.305 125.532 137.255 124.834V123.934C137.303 123.238 137.085 122.55 136.646 122.009C136.434 121.785 136.176 121.609 135.889 121.494C135.603 121.38 135.295 121.328 134.987 121.344C134.68 121.328 134.372 121.379 134.086 121.492C133.8 121.606 133.541 121.779 133.328 122.002C132.887 122.545 132.669 123.236 132.719 123.934V124.834C132.671 125.529 132.889 126.217 133.328 126.759C133.541 126.982 133.799 127.156 134.085 127.271C134.372 127.385 134.679 127.435 134.987 127.42V127.42ZM139.999 127.966V120.798H140.799V121.932H140.841C140.999 121.559 141.255 121.237 141.583 121.001C141.989 120.733 142.47 120.603 142.955 120.63C143.286 120.61 143.617 120.664 143.926 120.786C144.234 120.908 144.512 121.096 144.74 121.337C145.198 121.907 145.426 122.629 145.377 123.36V127.966H144.577V123.5C144.623 122.919 144.456 122.342 144.108 121.876C143.934 121.692 143.721 121.549 143.485 121.457C143.249 121.365 142.996 121.326 142.743 121.344C142.497 121.343 142.252 121.377 142.015 121.444C141.792 121.504 141.581 121.604 141.392 121.738C141.21 121.868 141.062 122.039 140.958 122.238C140.848 122.452 140.792 122.69 140.797 122.931V127.966H139.999ZM153.621 128.806C153.64 129.129 153.567 129.451 153.413 129.735C153.258 130.02 153.027 130.255 152.746 130.416C151.949 130.808 151.064 130.987 150.177 130.934C149.36 130.995 148.541 130.83 147.811 130.458C147.584 130.322 147.397 130.129 147.269 129.898C147.141 129.667 147.077 129.406 147.083 129.142C147.065 128.788 147.18 128.44 147.405 128.166C147.651 127.904 147.967 127.72 148.315 127.634V127.518C148.111 127.451 147.934 127.319 147.813 127.142C147.691 126.965 147.631 126.752 147.643 126.538C147.634 126.384 147.66 126.231 147.721 126.09C147.782 125.949 147.875 125.824 147.993 125.726C148.25 125.527 148.546 125.384 148.861 125.306V125.25C148.456 125.076 148.114 124.783 147.881 124.41C147.639 124.004 147.518 123.538 147.531 123.066C147.527 122.726 147.588 122.388 147.713 122.072C147.83 121.78 148.009 121.517 148.238 121.302C148.476 121.08 148.757 120.91 149.064 120.802C149.408 120.681 149.771 120.622 150.135 120.627C150.638 120.615 151.135 120.736 151.577 120.977V120.627C151.569 120.439 151.623 120.255 151.731 120.102C151.793 120.031 151.87 119.976 151.957 119.941C152.044 119.907 152.138 119.893 152.231 119.902H153.465V120.602H152.009V121.288C152.251 121.502 152.443 121.767 152.569 122.065C152.704 122.381 152.772 122.721 152.769 123.065C152.774 123.405 152.709 123.743 152.58 124.059C152.458 124.351 152.277 124.616 152.048 124.836C151.811 125.058 151.529 125.229 151.222 125.336C150.878 125.456 150.516 125.515 150.151 125.511C150.025 125.511 149.898 125.502 149.773 125.483L149.409 125.427C149.136 125.494 148.878 125.611 148.646 125.77C148.551 125.833 148.474 125.92 148.422 126.022C148.369 126.123 148.343 126.236 148.346 126.351C148.346 126.78 148.729 126.995 149.494 126.995H151.16C151.824 126.937 152.488 127.108 153.043 127.478C153.235 127.639 153.388 127.843 153.488 128.074C153.588 128.304 153.634 128.555 153.621 128.806V128.806ZM152.851 128.862C152.857 128.706 152.827 128.55 152.763 128.408C152.698 128.266 152.602 128.141 152.48 128.043C152.083 127.803 151.619 127.698 151.157 127.743H148.833C148.553 127.827 148.301 127.987 148.105 128.205C147.924 128.42 147.829 128.694 147.839 128.975C147.837 129.155 147.878 129.334 147.959 129.495C148.039 129.657 148.156 129.798 148.301 129.906C148.713 130.183 149.206 130.314 149.701 130.277H150.601C151.172 130.305 151.741 130.187 152.253 129.934C152.443 129.83 152.601 129.675 152.706 129.486C152.812 129.297 152.862 129.082 152.851 128.866V128.862ZM150.151 124.872C150.621 124.9 151.084 124.753 151.451 124.459C151.611 124.31 151.736 124.129 151.817 123.927C151.898 123.725 151.933 123.507 151.92 123.29V122.842C151.932 122.626 151.896 122.411 151.815 122.211C151.734 122.012 151.61 121.832 151.451 121.687C151.084 121.392 150.621 121.245 150.151 121.274C149.681 121.244 149.218 121.392 148.851 121.687C148.694 121.834 148.572 122.013 148.492 122.213C148.412 122.412 148.377 122.627 148.389 122.842V123.29C148.376 123.507 148.411 123.725 148.493 123.927C148.574 124.129 148.698 124.31 148.858 124.459C149.223 124.751 149.682 124.898 150.149 124.872H150.151ZM155.401 118.852C155.326 118.858 155.251 118.849 155.18 118.825C155.109 118.8 155.044 118.762 154.988 118.712C154.897 118.613 154.849 118.482 154.855 118.348V118.208C154.849 118.073 154.897 117.942 154.988 117.844C155.044 117.793 155.109 117.755 155.18 117.731C155.251 117.706 155.326 117.697 155.401 117.704C155.476 117.697 155.551 117.706 155.622 117.731C155.693 117.755 155.759 117.793 155.814 117.844C155.905 117.942 155.953 118.073 155.947 118.208V118.348C155.953 118.482 155.905 118.613 155.814 118.712C155.758 118.762 155.693 118.801 155.621 118.825C155.55 118.849 155.474 118.858 155.399 118.852H155.401ZM155.009 120.798H155.809V127.966H155.009V120.798ZM158.265 117.606H159.065V124.452H159.107L160.227 123.262L162.607 120.798H163.587L160.775 123.71L163.897 127.966H162.917L160.201 124.214L159.065 125.366V127.966H158.265V117.606ZM169.311 118.194V124.228C169.305 124.7 169.347 125.171 169.437 125.635C169.502 125.988 169.646 126.323 169.857 126.615C170.059 126.876 170.331 127.075 170.641 127.189C171.026 127.324 171.433 127.388 171.841 127.378C172.249 127.389 172.656 127.325 173.041 127.189C173.35 127.072 173.621 126.874 173.825 126.615C174.04 126.325 174.186 125.99 174.252 125.635C174.342 125.171 174.385 124.7 174.378 124.228V118.194H175.218V124.046C175.228 124.666 175.167 125.287 175.036 125.894C174.942 126.353 174.747 126.786 174.465 127.161C174.19 127.498 173.826 127.753 173.415 127.896C172.903 128.066 172.366 128.147 171.826 128.134C171.287 128.148 170.75 128.067 170.239 127.896C169.832 127.753 169.473 127.498 169.203 127.161C168.922 126.786 168.731 126.353 168.643 125.894C168.522 125.285 168.466 124.666 168.475 124.046V118.194H169.311ZM177.687 127.966V120.798H178.487V121.932H178.529C178.687 121.559 178.943 121.237 179.271 121.001C179.677 120.733 180.158 120.603 180.643 120.63C180.974 120.61 181.305 120.664 181.614 120.786C181.922 120.908 182.2 121.096 182.428 121.337C182.886 121.907 183.114 122.629 183.065 123.36V127.966H182.265V123.5C182.311 122.919 182.144 122.342 181.796 121.876C181.622 121.692 181.409 121.549 181.173 121.457C180.937 121.365 180.684 121.326 180.431 121.344C180.185 121.343 179.94 121.377 179.703 121.444C179.48 121.504 179.269 121.604 179.08 121.738C178.898 121.868 178.75 122.039 178.646 122.238C178.536 122.452 178.48 122.69 178.485 122.931V127.966H177.687ZM185.821 118.852C185.746 118.858 185.671 118.849 185.6 118.825C185.529 118.8 185.464 118.762 185.408 118.712C185.317 118.613 185.269 118.482 185.275 118.348V118.208C185.269 118.073 185.317 117.942 185.408 117.844C185.464 117.793 185.529 117.755 185.6 117.731C185.671 117.706 185.746 117.697 185.821 117.704C185.896 117.697 185.971 117.706 186.042 117.731C186.113 117.755 186.179 117.793 186.234 117.844C186.324 117.943 186.371 118.074 186.365 118.208V118.348C186.371 118.482 186.323 118.613 186.232 118.712C186.177 118.762 186.112 118.8 186.041 118.824C185.97 118.848 185.895 118.858 185.821 118.852V118.852ZM185.429 120.798H186.229V127.966H185.429V120.798ZM187.683 120.798H188.523L190.723 127.112H190.779L192.965 120.798H193.777L191.183 127.966H190.273L187.683 120.798ZM197.683 128.134C197.237 128.14 196.795 128.055 196.384 127.882C196.001 127.716 195.66 127.465 195.39 127.147C195.103 126.8 194.891 126.398 194.765 125.966C194.614 125.452 194.541 124.919 194.548 124.384C194.54 123.85 194.613 123.318 194.765 122.807C194.893 122.376 195.107 121.976 195.395 121.631C195.665 121.313 196.002 121.059 196.382 120.889C196.786 120.712 197.224 120.624 197.665 120.63C198.094 120.624 198.52 120.712 198.911 120.889C199.278 121.056 199.603 121.302 199.863 121.61C200.136 121.938 200.342 122.316 200.472 122.723C200.621 123.186 200.695 123.671 200.689 124.158V124.536H195.383V124.886C195.379 125.235 195.434 125.583 195.544 125.915C195.642 126.211 195.799 126.485 196.006 126.72C196.21 126.946 196.461 127.125 196.741 127.245C197.051 127.375 197.385 127.439 197.721 127.434C198.19 127.46 198.655 127.334 199.046 127.074C199.438 126.814 199.734 126.434 199.891 125.992L200.479 126.384C200.264 126.905 199.895 127.349 199.422 127.658C198.901 127.986 198.294 128.152 197.679 128.134H197.683ZM197.665 121.302C197.342 121.297 197.023 121.361 196.727 121.491C196.452 121.613 196.207 121.792 196.006 122.016C195.799 122.25 195.642 122.524 195.544 122.821C195.434 123.152 195.379 123.5 195.383 123.85V123.92H199.821V123.808C199.824 123.458 199.771 123.111 199.665 122.779C199.574 122.487 199.424 122.218 199.224 121.988C199.033 121.775 198.799 121.604 198.538 121.488C198.264 121.363 197.966 121.3 197.665 121.302V121.302ZM202.579 127.966V120.798H203.379V122.086H203.435C203.59 121.728 203.836 121.418 204.149 121.186C204.568 120.901 205.07 120.765 205.575 120.798H206.051V121.582H205.421C204.903 121.56 204.39 121.697 203.951 121.974C203.769 122.09 203.621 122.252 203.52 122.444C203.419 122.635 203.37 122.849 203.377 123.066V127.966H202.579ZM209.465 128.134C208.911 128.149 208.362 128.029 207.865 127.784C207.406 127.538 207.011 127.19 206.709 126.766L207.297 126.304C207.556 126.661 207.891 126.957 208.277 127.172C208.663 127.366 209.091 127.462 209.523 127.452C209.975 127.48 210.423 127.357 210.797 127.102C210.947 126.982 211.066 126.827 211.144 126.652C211.222 126.477 211.256 126.285 211.245 126.094C211.254 125.928 211.228 125.762 211.169 125.607C211.109 125.452 211.019 125.311 210.902 125.194C210.581 124.933 210.188 124.776 209.775 124.746L209.187 124.646C208.881 124.604 208.58 124.534 208.287 124.436C208.035 124.352 207.8 124.224 207.594 124.058C207.403 123.9 207.25 123.701 207.146 123.477C207.032 123.214 206.977 122.93 206.985 122.644C206.98 122.34 207.046 122.039 207.178 121.766C207.299 121.52 207.474 121.305 207.689 121.136C207.918 120.96 208.18 120.832 208.459 120.758C208.774 120.671 209.099 120.629 209.425 120.632C209.933 120.612 210.438 120.718 210.895 120.94C211.271 121.14 211.604 121.411 211.875 121.74L211.343 122.23C211.129 121.982 210.876 121.772 210.594 121.607C210.225 121.401 209.805 121.302 209.383 121.32C208.957 121.293 208.534 121.411 208.183 121.656C208.041 121.769 207.929 121.914 207.854 122.08C207.78 122.245 207.746 122.426 207.756 122.608C207.741 122.779 207.768 122.952 207.835 123.111C207.902 123.269 208.007 123.409 208.141 123.518C208.49 123.738 208.885 123.877 209.296 123.924L209.87 124.008C210.461 124.062 211.023 124.288 211.487 124.659C211.666 124.832 211.806 125.042 211.897 125.275C211.988 125.507 212.029 125.756 212.015 126.006C212.031 126.302 211.977 126.597 211.86 126.869C211.742 127.141 211.563 127.382 211.336 127.574C210.798 127.975 210.135 128.173 209.465 128.134V128.134ZM214.365 118.852C214.29 118.858 214.215 118.849 214.144 118.825C214.073 118.8 214.008 118.762 213.952 118.712C213.861 118.613 213.813 118.482 213.819 118.348V118.208C213.813 118.073 213.861 117.942 213.952 117.844C214.008 117.793 214.073 117.755 214.144 117.731C214.215 117.706 214.29 117.697 214.365 117.704C214.44 117.697 214.515 117.706 214.586 117.731C214.657 117.755 214.723 117.793 214.778 117.844C214.869 117.942 214.917 118.073 214.911 118.208V118.348C214.917 118.482 214.869 118.613 214.778 118.712C214.723 118.762 214.657 118.8 214.586 118.825C214.515 118.849 214.44 118.858 214.365 118.852V118.852ZM213.975 120.798H214.775V127.966H213.975V120.798ZM218.465 127.966C218.345 127.974 218.224 127.957 218.111 127.916C217.997 127.875 217.894 127.811 217.807 127.728C217.651 127.551 217.57 127.319 217.583 127.084V121.498H216.341V120.798H217.153C217.224 120.806 217.297 120.8 217.365 120.78C217.434 120.759 217.498 120.725 217.553 120.679C217.634 120.552 217.67 120.401 217.653 120.252V118.796H218.381V120.796H220.005V121.496H218.385V127.266H219.897V127.966H218.465ZM226.123 120.798H226.935L223.621 129.982C223.549 130.222 223.408 130.436 223.215 130.598C222.976 130.729 222.703 130.787 222.431 130.766H221.619V130.066H222.819L223.509 128.176L220.849 120.798H221.689L223.889 127.112H223.945L226.123 120.798ZM237.775 127.966L236.711 124.928H232.553L231.489 127.966H230.649L234.107 118.194H235.185L238.657 127.966H237.775ZM234.653 118.992H234.597L232.765 124.2H236.489L234.653 118.992ZM241.065 127.966C240.945 127.974 240.824 127.957 240.711 127.916C240.597 127.875 240.494 127.811 240.407 127.728C240.253 127.555 240.172 127.329 240.183 127.098V117.606H240.983V127.266H242.089V127.966H241.065ZM244.523 127.966C244.403 127.974 244.282 127.957 244.169 127.916C244.055 127.875 243.952 127.811 243.865 127.728C243.711 127.555 243.63 127.329 243.641 127.098V117.606H244.441V127.266H245.545V127.966H244.523ZM250.365 127.966V120.798H251.165V122.086H251.221C251.376 121.728 251.622 121.418 251.935 121.186C252.354 120.9 252.857 120.762 253.363 120.794H253.839V121.578H253.209C252.691 121.556 252.178 121.693 251.739 121.97C251.555 122.086 251.405 122.248 251.304 122.441C251.202 122.633 251.152 122.848 251.159 123.066V127.966H250.365ZM255.615 118.852C255.54 118.858 255.465 118.849 255.394 118.825C255.323 118.8 255.258 118.762 255.202 118.712C255.111 118.613 255.063 118.482 255.069 118.348V118.208C255.063 118.073 255.111 117.942 255.202 117.844C255.258 117.793 255.323 117.755 255.394 117.731C255.465 117.706 255.54 117.697 255.615 117.704C255.69 117.697 255.765 117.706 255.836 117.731C255.907 117.755 255.973 117.793 256.028 117.844C256.119 117.942 256.167 118.073 256.161 118.208V118.348C256.167 118.482 256.119 118.613 256.028 118.712C255.972 118.763 255.906 118.801 255.834 118.825C255.763 118.85 255.686 118.858 255.611 118.852H255.615ZM255.223 120.798H256.023V127.966H255.223V120.798ZM264.365 128.806C264.384 129.129 264.311 129.451 264.157 129.735C264.002 130.02 263.771 130.255 263.49 130.416C262.693 130.808 261.808 130.987 260.921 130.934C260.104 130.995 259.285 130.83 258.555 130.458C258.328 130.322 258.141 130.129 258.013 129.898C257.885 129.667 257.821 129.406 257.827 129.142C257.808 128.788 257.922 128.44 258.145 128.166C258.391 127.904 258.707 127.72 259.055 127.634V127.518C258.851 127.451 258.674 127.319 258.553 127.142C258.431 126.965 258.371 126.752 258.383 126.538C258.374 126.384 258.4 126.231 258.461 126.09C258.522 125.949 258.615 125.824 258.733 125.726C258.99 125.527 259.286 125.384 259.601 125.306V125.25C259.196 125.076 258.854 124.783 258.621 124.41C258.379 124.004 258.258 123.538 258.271 123.066C258.267 122.726 258.328 122.388 258.453 122.072C258.57 121.78 258.749 121.517 258.978 121.302C259.216 121.08 259.497 120.91 259.804 120.802C260.148 120.681 260.511 120.622 260.875 120.627C261.378 120.615 261.875 120.736 262.317 120.977V120.627C262.309 120.439 262.363 120.255 262.471 120.102C262.533 120.031 262.61 119.976 262.697 119.941C262.784 119.907 262.878 119.893 262.971 119.902H264.203V120.602H262.751V121.288C262.993 121.502 263.185 121.767 263.311 122.065C263.446 122.381 263.514 122.721 263.511 123.065C263.516 123.405 263.451 123.743 263.322 124.059C263.2 124.351 263.019 124.616 262.79 124.836C262.553 125.058 262.271 125.229 261.964 125.336C261.62 125.456 261.258 125.515 260.893 125.511C260.767 125.511 260.64 125.502 260.515 125.483L260.151 125.427C259.878 125.494 259.62 125.611 259.388 125.77C259.293 125.833 259.216 125.92 259.164 126.022C259.111 126.123 259.085 126.236 259.088 126.351C259.088 126.78 259.471 126.995 260.236 126.995H261.902C262.566 126.937 263.23 127.108 263.785 127.478C263.978 127.639 264.13 127.843 264.231 128.073C264.332 128.304 264.377 128.554 264.365 128.806V128.806ZM263.591 128.866C263.597 128.71 263.567 128.554 263.503 128.412C263.438 128.27 263.342 128.145 263.22 128.047C262.823 127.807 262.359 127.702 261.897 127.747H259.573C259.293 127.831 259.041 127.991 258.845 128.209C258.664 128.424 258.569 128.698 258.579 128.979C258.577 129.159 258.618 129.338 258.699 129.499C258.779 129.661 258.896 129.802 259.041 129.91C259.453 130.187 259.946 130.318 260.441 130.281H261.341C261.912 130.309 262.481 130.191 262.993 129.938C263.184 129.834 263.342 129.678 263.448 129.488C263.553 129.299 263.603 129.083 263.591 128.866V128.866ZM260.891 124.876C261.361 124.904 261.824 124.757 262.191 124.463C262.351 124.314 262.476 124.133 262.557 123.931C262.638 123.729 262.673 123.511 262.66 123.294V122.846C262.672 122.63 262.636 122.415 262.555 122.215C262.474 122.016 262.35 121.836 262.191 121.691C261.824 121.396 261.361 121.249 260.891 121.278C260.421 121.248 259.958 121.396 259.591 121.691C259.434 121.838 259.312 122.017 259.232 122.217C259.152 122.416 259.117 122.631 259.129 122.846V123.294C259.116 123.511 259.151 123.729 259.232 123.931C259.314 124.133 259.438 124.314 259.598 124.463C259.963 124.754 260.423 124.899 260.889 124.872L260.891 124.876ZM265.749 117.61H266.549V121.936H266.591C266.749 121.563 267.005 121.241 267.333 121.005C267.739 120.737 268.22 120.607 268.705 120.634C269.036 120.614 269.367 120.668 269.676 120.79C269.984 120.912 270.262 121.1 270.49 121.341C270.948 121.911 271.176 122.633 271.127 123.364V127.966H270.327V123.5C270.373 122.919 270.206 122.342 269.858 121.876C269.684 121.692 269.471 121.549 269.235 121.457C268.999 121.365 268.746 121.326 268.493 121.344C268.247 121.343 268.002 121.377 267.765 121.444C267.542 121.504 267.331 121.604 267.142 121.738C266.96 121.868 266.812 122.039 266.708 122.238C266.598 122.452 266.542 122.69 266.547 122.931V127.966H265.747L265.749 117.61ZM274.721 127.966C274.601 127.974 274.481 127.957 274.368 127.916C274.255 127.875 274.152 127.811 274.065 127.728C273.909 127.551 273.828 127.319 273.841 127.084V121.498H272.593V120.798H273.405C273.476 120.806 273.549 120.8 273.617 120.78C273.686 120.759 273.75 120.725 273.805 120.679C273.888 120.553 273.925 120.402 273.91 120.252V118.796H274.638V120.796H276.265V121.496H274.637V127.266H276.149V127.966H274.721ZM280.065 128.134C279.511 128.149 278.962 128.029 278.465 127.784C278.007 127.538 277.612 127.189 277.311 126.766L277.899 126.304C278.158 126.661 278.493 126.957 278.879 127.172C279.265 127.366 279.693 127.462 280.125 127.452C280.577 127.48 281.025 127.357 281.399 127.102C281.549 126.982 281.668 126.827 281.746 126.652C281.824 126.477 281.858 126.285 281.847 126.094C281.856 125.928 281.83 125.762 281.771 125.607C281.711 125.452 281.621 125.311 281.504 125.194C281.182 124.935 280.789 124.781 280.377 124.753L279.789 124.653C279.483 124.611 279.182 124.541 278.889 124.443C278.637 124.359 278.402 124.231 278.196 124.065C278.005 123.907 277.852 123.708 277.748 123.484C277.634 123.221 277.579 122.937 277.587 122.651C277.58 122.346 277.645 122.044 277.776 121.769C277.897 121.523 278.072 121.308 278.287 121.139C278.516 120.963 278.778 120.835 279.057 120.761C279.372 120.674 279.697 120.632 280.023 120.635C280.531 120.615 281.036 120.721 281.493 120.943C281.869 121.143 282.202 121.414 282.473 121.743L281.941 122.233C281.727 121.985 281.474 121.775 281.192 121.61C280.824 121.402 280.407 121.301 279.985 121.316C279.559 121.289 279.136 121.407 278.785 121.652C278.645 121.766 278.533 121.911 278.46 122.077C278.387 122.242 278.355 122.423 278.365 122.604C278.35 122.775 278.377 122.948 278.444 123.107C278.511 123.265 278.616 123.405 278.75 123.514C279.099 123.734 279.494 123.873 279.905 123.92L280.479 124.004C281.07 124.058 281.632 124.284 282.096 124.655C282.275 124.829 282.415 125.04 282.506 125.273C282.596 125.506 282.636 125.756 282.621 126.006C282.637 126.302 282.583 126.597 282.466 126.869C282.348 127.141 282.169 127.382 281.942 127.574C281.402 127.976 280.737 128.174 280.065 128.134V128.134ZM288.665 127.966H287.825V118.194H291.665C292.02 118.171 292.376 118.222 292.71 118.345C293.044 118.468 293.349 118.66 293.604 118.908C294.084 119.459 294.328 120.178 294.283 120.908C294.314 121.564 294.119 122.212 293.73 122.742C293.532 122.981 293.289 123.178 293.014 123.322C292.74 123.467 292.439 123.555 292.13 123.582L294.531 127.966H293.593L291.255 123.64H288.665V127.966ZM291.665 122.926C291.9 122.942 292.135 122.908 292.355 122.827C292.576 122.747 292.777 122.62 292.946 122.457C293.246 122.13 293.404 121.699 293.387 121.257V120.585C293.402 120.148 293.243 119.722 292.946 119.402C292.777 119.238 292.576 119.113 292.355 119.032C292.134 118.952 291.899 118.919 291.665 118.936H288.665V122.926H291.665ZM298.865 128.134C298.419 128.14 297.976 128.055 297.565 127.882C297.179 127.717 296.837 127.466 296.565 127.147C296.278 126.8 296.064 126.398 295.938 125.966C295.787 125.452 295.714 124.919 295.721 124.384C295.713 123.851 295.786 123.32 295.938 122.809C296.066 122.378 296.28 121.978 296.568 121.633C296.838 121.315 297.175 121.061 297.555 120.891C297.961 120.713 298.4 120.625 298.843 120.632C299.272 120.626 299.698 120.714 300.089 120.891C300.456 121.058 300.781 121.304 301.041 121.612C301.314 121.94 301.52 122.318 301.65 122.725C301.799 123.188 301.873 123.673 301.867 124.16V124.538H296.565V124.888C296.561 125.237 296.616 125.585 296.726 125.917C296.824 126.213 296.981 126.487 297.188 126.722C297.392 126.948 297.643 127.127 297.923 127.247C298.233 127.377 298.567 127.441 298.903 127.436C299.372 127.462 299.837 127.336 300.228 127.076C300.62 126.816 300.916 126.436 301.073 125.994L301.661 126.386C301.446 126.907 301.077 127.351 300.604 127.66C300.082 127.988 299.474 128.153 298.857 128.134H298.865ZM298.851 121.302C298.528 121.297 298.209 121.361 297.913 121.491C297.638 121.613 297.393 121.792 297.192 122.016C296.985 122.25 296.828 122.524 296.73 122.821C296.618 123.152 296.563 123.5 296.565 123.85V123.92H301.003V123.808C301.007 123.459 300.955 123.111 300.849 122.779C300.758 122.487 300.608 122.218 300.408 121.988C300.217 121.775 299.983 121.604 299.722 121.488C299.446 121.362 299.146 121.299 298.843 121.302H298.851ZM305.787 128.134C305.233 128.149 304.684 128.029 304.187 127.784C303.728 127.538 303.331 127.19 303.029 126.766L303.617 126.304C303.876 126.661 304.211 126.957 304.597 127.172C304.983 127.366 305.411 127.462 305.843 127.452C306.295 127.48 306.743 127.357 307.117 127.102C307.267 126.982 307.386 126.827 307.464 126.652C307.542 126.477 307.576 126.285 307.565 126.094C307.574 125.928 307.548 125.762 307.489 125.607C307.429 125.452 307.339 125.311 307.222 125.194C306.9 124.935 306.507 124.781 306.095 124.753L305.507 124.653C305.201 124.611 304.9 124.541 304.607 124.443C304.355 124.359 304.12 124.231 303.914 124.065C303.723 123.907 303.57 123.708 303.466 123.484C303.352 123.221 303.297 122.937 303.305 122.651C303.298 122.346 303.363 122.044 303.494 121.769C303.615 121.523 303.79 121.308 304.005 121.139C304.234 120.963 304.496 120.835 304.775 120.761C305.09 120.674 305.415 120.632 305.741 120.635C306.249 120.615 306.754 120.721 307.211 120.943C307.587 121.143 307.92 121.414 308.191 121.743L307.659 122.233C307.445 121.985 307.192 121.775 306.91 121.61C306.541 121.404 306.121 121.305 305.699 121.323C305.273 121.296 304.85 121.414 304.499 121.659C304.357 121.772 304.245 121.917 304.17 122.083C304.096 122.248 304.062 122.429 304.072 122.611C304.057 122.782 304.084 122.955 304.151 123.114C304.218 123.272 304.323 123.412 304.457 123.521C304.806 123.741 305.201 123.88 305.612 123.927L306.186 124.011C306.777 124.065 307.339 124.291 307.803 124.662C307.982 124.836 308.122 125.047 308.213 125.28C308.303 125.513 308.343 125.763 308.328 126.013C308.344 126.309 308.29 126.604 308.173 126.876C308.055 127.148 307.876 127.389 307.649 127.581C307.112 127.977 306.453 128.173 305.787 128.134V128.134ZM312.857 128.134C312.414 128.139 311.974 128.054 311.565 127.882C311.182 127.716 310.841 127.465 310.571 127.147C310.282 126.8 310.066 126.398 309.938 125.966C309.787 125.452 309.714 124.919 309.721 124.384C309.713 123.851 309.786 123.32 309.938 122.809C310.066 122.378 310.28 121.978 310.568 121.633C310.838 121.315 311.175 121.061 311.555 120.891C311.961 120.713 312.4 120.625 312.843 120.632C313.272 120.626 313.698 120.714 314.089 120.891C314.456 121.058 314.781 121.304 315.041 121.612C315.314 121.94 315.52 122.318 315.65 122.725C315.799 123.188 315.873 123.673 315.867 124.16V124.538H310.565V124.888C310.561 125.237 310.616 125.585 310.726 125.917C310.824 126.213 310.981 126.487 311.188 126.722C311.392 126.948 311.643 127.127 311.923 127.247C312.233 127.377 312.567 127.441 312.903 127.436C313.372 127.462 313.837 127.336 314.228 127.076C314.62 126.816 314.916 126.436 315.073 125.994L315.661 126.386C315.446 126.907 315.077 127.351 314.604 127.66C314.082 127.988 313.474 128.153 312.857 128.134V128.134ZM312.843 121.302C312.52 121.297 312.201 121.361 311.905 121.491C311.63 121.613 311.385 121.792 311.184 122.016C310.977 122.25 310.82 122.524 310.722 122.821C310.612 123.152 310.557 123.5 310.561 123.85V123.92H314.999V123.808C315.003 123.459 314.951 123.111 314.845 122.779C314.754 122.487 314.604 122.218 314.404 121.988C314.213 121.775 313.979 121.604 313.718 121.488C313.443 121.363 313.145 121.299 312.843 121.302V121.302ZM317.757 127.966V120.798H318.557V122.086H318.613C318.768 121.728 319.014 121.418 319.327 121.186C319.746 120.9 320.249 120.762 320.755 120.794H321.231V121.578H320.601C320.083 121.556 319.57 121.693 319.131 121.97C318.948 122.086 318.799 122.249 318.698 122.441C318.597 122.633 318.548 122.849 318.555 123.066V127.966H317.757ZM321.803 120.798H322.643L324.843 127.112H324.899L327.083 120.798H327.895L325.303 127.966H324.393L321.803 120.798ZM331.803 128.134C331.359 128.14 330.918 128.054 330.508 127.882C330.125 127.716 329.784 127.465 329.514 127.147C329.224 126.8 329.008 126.398 328.88 125.966C328.729 125.452 328.656 124.919 328.663 124.384C328.655 123.851 328.728 123.32 328.88 122.809C329.008 122.378 329.222 121.978 329.51 121.633C329.78 121.315 330.117 121.061 330.497 120.891C330.903 120.713 331.342 120.625 331.785 120.632C332.214 120.626 332.64 120.714 333.031 120.891C333.398 121.058 333.723 121.304 333.983 121.612C334.256 121.94 334.462 122.318 334.592 122.725C334.741 123.188 334.815 123.673 334.809 124.16V124.538H329.503V124.888C329.499 125.237 329.554 125.585 329.664 125.917C329.762 126.213 329.919 126.487 330.126 126.722C330.33 126.948 330.581 127.127 330.861 127.247C331.171 127.377 331.505 127.441 331.841 127.436C332.31 127.462 332.775 127.336 333.166 127.076C333.558 126.816 333.854 126.436 334.011 125.994L334.599 126.386C334.384 126.907 334.015 127.351 333.542 127.66C333.021 127.987 332.414 128.153 331.799 128.134H331.803ZM331.789 121.302C331.466 121.297 331.147 121.361 330.851 121.491C330.576 121.613 330.331 121.792 330.13 122.016C329.923 122.25 329.766 122.524 329.668 122.821C329.558 123.152 329.503 123.5 329.507 123.85V123.92H333.945V123.808C333.949 123.459 333.897 123.111 333.791 122.779C333.7 122.487 333.55 122.218 333.35 121.988C333.159 121.775 332.925 121.604 332.664 121.488C332.388 121.362 332.088 121.299 331.785 121.302H331.789ZM341.337 126.818H341.295C341.118 127.208 340.834 127.54 340.476 127.777C340.067 128.028 339.591 128.153 339.111 128.134C338.698 128.153 338.286 128.074 337.909 127.904C337.531 127.733 337.2 127.476 336.941 127.154C336.372 126.346 336.095 125.368 336.157 124.382C336.095 123.395 336.372 122.417 336.941 121.61C337.2 121.287 337.531 121.03 337.909 120.859C338.286 120.689 338.698 120.61 339.111 120.63C339.594 120.611 340.071 120.735 340.483 120.987C340.842 121.219 341.125 121.553 341.295 121.946H341.337V117.606H342.137V127.966H341.337V126.818ZM339.293 127.418C339.561 127.419 339.827 127.382 340.084 127.306C340.319 127.237 340.54 127.125 340.735 126.977C340.917 126.837 341.068 126.661 341.176 126.459C341.285 126.249 341.341 126.016 341.337 125.78V122.94C341.339 122.715 341.284 122.493 341.176 122.296C341.067 122.099 340.916 121.929 340.735 121.796C340.538 121.65 340.318 121.539 340.084 121.467C339.828 121.386 339.561 121.346 339.293 121.348C338.98 121.33 338.666 121.383 338.376 121.501C338.085 121.62 337.825 121.802 337.613 122.034C337.191 122.554 336.977 123.212 337.013 123.882V124.886C336.977 125.555 337.191 126.213 337.613 126.734C337.824 126.965 338.084 127.146 338.374 127.265C338.664 127.383 338.976 127.436 339.289 127.42L339.293 127.418Z" fill="#C3C6CB"/>
<path d="M208.132 39.8382L213.656 41.9662L217.391 33.3512L221.235 41.9662L226.653 39.8382L217.392 22.5542L208.132 39.8382Z" fill="white"/>
<path d="M246.365 29.1822H237.559V35.3372H246.365V41.1942H231.622V23.3242H246.365V29.1822Z" fill="white"/>
<path d="M217.367 14.926C217.72 14.9414 218.072 14.8853 218.403 14.7608C218.734 14.6364 219.036 14.4463 219.291 14.202C219.546 13.9577 219.749 13.6643 219.888 13.3393C220.027 13.0144 220.098 12.6648 220.098 12.3115C220.098 11.9582 220.027 11.6086 219.888 11.2837C219.749 10.9587 219.546 10.6653 219.291 10.421C219.036 10.1767 218.734 9.98661 218.403 9.86218C218.072 9.73775 217.72 9.68156 217.367 9.697C213.867 9.697 214.176 14.926 217.367 14.926ZM212.267 0H222.508V3.705H212.267V0ZM224.667 9.087C226.417 13.657 223.947 19.851 217.359 19.851C210.771 19.851 208.301 13.657 210.051 9.087H208.918V4.265H225.85V9.087H224.666" fill="white"/>
<path d="M239.244 5.76895C234.523 5.76895 234.672 12.8269 239.244 12.8269C243.816 12.8269 243.964 5.76895 239.244 5.76895ZM239.244 0.668945C250.922 0.668945 250.922 17.9689 239.244 17.9689C227.566 17.9689 227.566 0.668945 239.244 0.668945" fill="white"/>
<path d="M195.486 2.62305V40.392" stroke="#B6BABF" stroke-width="0.6"/>
<path d="M161.99 41.832C173.542 41.832 182.906 32.4676 182.906 20.916C182.906 9.36441 173.542 0 161.99 0C150.439 0 141.074 9.36441 141.074 20.916C141.074 32.4676 150.439 41.832 161.99 41.832Z" fill="#2430C7"/>
<path d="M166.971 32.1039L161.055 33.3579V13.4459L160.32 13.3999L153.712 34.9279L142.88 37.2449L136.271 11.8959L135.536 11.8499V38.8149L127.997 40.4239V1.3999L140.928 3.46989L147.828 29.8859L148.519 29.7859L155.425 5.7439L166.964 7.53389L166.971 32.1039Z" fill="white"/>
</svg>
