<svg width="85" height="31" viewBox="0 0 85 31" fill="none" xmlns="http://www.w3.org/2000/svg">
<g opacity="0.9">
<path d="M16.3551 9.99992H22.6271V8.02592H19.4211L21.1431 6.44392C22.1511 5.51992 22.6131 4.67992 22.6131 3.75592C22.6131 2.13192 21.4511 0.815918 19.4771 0.815918C17.6151 0.815918 16.5791 1.90792 16.0891 2.99992L17.8391 4.14792C18.2031 3.36392 18.7351 2.92992 19.3511 2.92992C19.9391 2.92992 20.3591 3.25192 20.3591 3.81192C20.3591 4.27392 20.1071 4.72192 19.5751 5.22592L16.3551 8.30592V9.99992Z" fill="#C3C6CB"/>
<path d="M26.5281 10.2099C28.6561 10.2099 30.1961 8.22192 30.1681 5.50592C30.1961 2.80392 28.6141 0.815918 26.4161 0.815918C24.3161 0.815918 22.7761 2.80392 22.7761 5.51992C22.7761 8.22192 24.3581 10.2099 26.5281 10.2099ZM26.4861 8.09592C25.6041 8.09592 25.0301 7.07392 25.0301 5.50592C25.0301 3.95192 25.5901 2.92992 26.4301 2.92992C27.3541 2.92992 27.9141 3.96592 27.9141 5.51992C27.9141 7.07392 27.3681 8.09592 26.4861 8.09592Z" fill="#C3C6CB"/>
<path d="M30.1926 9.99992H36.4646V8.02592H33.2586L34.9806 6.44392C35.9886 5.51992 36.4506 4.67992 36.4506 3.75592C36.4506 2.13192 35.2886 0.815918 33.3146 0.815918C31.4526 0.815918 30.4166 1.90792 29.9266 2.99992L31.6766 4.14792C32.0406 3.36392 32.5726 2.92992 33.1886 2.92992C33.7766 2.92992 34.1966 3.25192 34.1966 3.81192C34.1966 4.27392 33.9446 4.72192 33.4126 5.22592L30.1926 8.30592V9.99992Z" fill="#C3C6CB"/>
<path d="M40.3657 10.2099C42.4937 10.2099 44.0337 8.22192 44.0057 5.50592C44.0337 2.80392 42.4517 0.815918 40.2537 0.815918C38.1537 0.815918 36.6137 2.80392 36.6137 5.51992C36.6137 8.22192 38.1957 10.2099 40.3657 10.2099ZM40.3237 8.09592C39.4417 8.09592 38.8677 7.07392 38.8677 5.50592C38.8677 3.95192 39.4277 2.92992 40.2677 2.92992C41.1917 2.92992 41.7517 3.96592 41.7517 5.51992C41.7517 7.07392 41.2057 8.09592 40.3237 8.09592Z" fill="#C3C6CB"/>
<path d="M52.195 9.99992H54.505V1.02592H52.195V4.28792H48.737V1.02592H46.427V9.99992H48.737V6.45792H52.195V9.99992Z" fill="#C3C6CB"/>
<path d="M55.3487 9.99992H57.6587V1.02592H55.3487V9.99992Z" fill="#C3C6CB"/>
<path d="M60.4189 1.02592H57.8709L61.0909 9.99992H63.8069L67.0269 1.02592H64.6049L62.5189 7.49392L60.4189 1.02592Z" fill="#C3C6CB"/>
<path d="M74.0692 2.14592C73.3552 1.34792 72.2492 0.815918 70.6252 0.815918C68.0632 0.815918 65.9772 2.91592 65.9772 5.50592C65.9772 8.09592 67.9652 10.2099 70.6112 10.2099C72.1792 10.2099 73.3132 9.73392 74.0692 8.82392L72.5292 7.11592C72.1232 7.60592 71.4232 7.89992 70.7652 7.89992C69.4212 7.89992 68.4552 6.82192 68.4552 5.50592C68.4552 4.18992 69.4212 3.12592 70.6532 3.12592C71.4092 3.12592 72.1092 3.47592 72.5292 3.90992L74.0692 2.14592Z" fill="#C3C6CB"/>
<path d="M74.2798 9.99992H77.5418C80.4678 9.99992 82.6238 8.10992 82.6238 5.53392C82.6238 2.92992 80.4678 1.02592 77.5418 1.02592H74.2798V9.99992ZM77.4998 3.19592C79.0958 3.19592 80.1458 4.11992 80.1458 5.50592C80.1458 6.90592 79.0958 7.82992 77.5138 7.82992H76.6598V3.19592H77.4998Z" fill="#C3C6CB"/>
<path d="M0.875 29.9999H4.137C7.063 29.9999 9.219 28.1099 9.219 25.5339C9.219 22.9299 7.063 21.0259 4.137 21.0259H0.875V29.9999ZM4.095 23.1959C5.691 23.1959 6.741 24.1199 6.741 25.5059C6.741 26.9059 5.691 27.8299 4.109 27.8299H3.255V23.1959H4.095Z" fill="#C3C6CB"/>
<path d="M9.63266 29.9999H15.5967V27.8299H11.9427V26.5419H15.0367V24.3719H11.9427V23.1959H15.5967V21.0259H9.63266V29.9999Z" fill="#C3C6CB"/>
<path d="M23.508 29.1179V25.5339H21.198V27.6479C20.862 27.8159 20.484 27.8999 20.106 27.8999C18.762 27.8999 17.796 26.8219 17.796 25.5059C17.796 24.1899 18.762 23.1259 19.994 23.1259C20.75 23.1259 21.45 23.4759 21.87 23.9099L23.41 22.1459C22.696 21.3479 21.59 20.8159 19.966 20.8159C17.404 20.8159 15.318 22.9159 15.318 25.5059C15.318 28.0959 17.306 30.2099 19.952 30.2099C21.562 30.2099 22.752 29.7479 23.508 29.1179Z" fill="#C3C6CB"/>
<path d="M24.2085 29.9999H26.5185V27.0039H27.2745L28.8145 29.9999H31.4885L29.5985 26.5699C30.6485 26.0659 31.2645 25.1559 31.2645 23.9939C31.2645 22.2019 29.7525 21.0259 27.4705 21.0259H24.2085V29.9999ZM27.6525 23.0559C28.3525 23.0559 28.8145 23.4339 28.8145 23.9939C28.8145 24.5819 28.3525 24.9739 27.6525 24.9739H26.5185V23.0559H27.6525Z" fill="#C3C6CB"/>
<path d="M31.9134 29.9999H37.8774V27.8299H34.2234V26.5419H37.3174V24.3719H34.2234V23.1959H37.8774V21.0259H31.9134V29.9999Z" fill="#C3C6CB"/>
<path d="M38.2922 29.9999H44.2562V27.8299H40.6022V26.5419H43.6962V24.3719H40.6022V23.1959H44.2562V21.0259H38.2922V29.9999Z" fill="#C3C6CB"/>
<path d="M53.2977 22.4539C52.6257 21.4879 51.4217 20.8159 49.8677 20.8159C47.8797 20.8159 46.4377 21.9779 46.4377 23.5879C46.4377 26.7519 50.8197 26.1779 50.8197 27.3959C50.8197 27.8159 50.4557 28.0399 49.7557 28.0399C48.9297 28.0399 48.2297 27.7039 47.7117 26.9899L46.0737 28.5299C46.6337 29.4119 47.6837 30.2099 49.7137 30.2099C51.8277 30.2099 53.2977 28.9639 53.2977 27.2979C53.2977 24.1619 48.9157 24.6939 48.9157 23.5319C48.9157 23.2099 49.1957 22.9859 49.7697 22.9859C50.6377 22.9859 51.3377 23.4619 51.7297 24.0219L53.2977 22.4539Z" fill="#C3C6CB"/>
<path d="M59.4093 29.9999H61.7193V21.0259H59.4093V24.2879H55.9513V21.0259H53.6413V29.9999H55.9513V26.4579H59.4093V29.9999Z" fill="#C3C6CB"/>
<path d="M66.847 20.8159C64.257 20.8159 62.143 22.9159 62.143 25.5059C62.143 28.0959 64.257 30.2099 66.847 30.2099C69.437 30.2099 71.551 28.1099 71.551 25.5199C71.551 22.9299 69.437 20.8159 66.847 20.8159ZM66.847 27.8999C65.615 27.8999 64.621 26.8219 64.621 25.5059C64.621 24.1899 65.615 23.1259 66.847 23.1259C68.079 23.1259 69.0731 24.2039 69.0731 25.5199C69.0731 26.8359 68.079 27.8999 66.847 27.8999Z" fill="#C3C6CB"/>
<path d="M82.2977 21.0259L80.6457 27.3399L79.2317 21.0259H76.3337L74.9197 27.3399L73.2677 21.0259H70.7197L73.5197 29.9999H76.3197L77.6637 23.8959L79.0077 29.9999H81.9197L84.7197 21.0259H82.2977Z" fill="#C3C6CB"/>
</g>
</svg>
