<svg width="86" height="24" viewBox="0 0 86 24" fill="none" xmlns="http://www.w3.org/2000/svg">
<g opacity="0.9">
<path opacity="0.8" d="M77.6602 2.71698C77.6602 1.21643 78.8766 0 80.3771 0H83.0941C84.5947 0 85.8111 1.21643 85.8111 2.71698V5.43396C85.8111 6.9345 84.5947 8.15094 83.0941 8.15094H80.3771C78.8766 8.15094 77.6602 6.9345 77.6602 5.43396V2.71698Z" fill="url(#paint0_angular)"/>
<path d="M15.6347 7.17569C14.1803 5.08025 11.5746 3.62256 8.21127 3.62256C3.90868 3.62256 0.787797 6.14315 0.787797 9.63554C0.787797 16.4989 10.2717 15.2537 10.2717 17.8958C10.2717 18.8069 9.48386 19.2928 7.96887 19.2928C6.18117 19.2928 4.66618 18.5639 3.54509 17.0151L0 20.3557C1.21199 22.2689 3.48449 23.9999 7.87797 23.9999C12.4532 23.9999 15.6347 21.2971 15.6347 17.6832C15.6347 10.8807 6.15087 12.0347 6.15087 9.51407C6.15087 8.81559 6.75687 8.32969 7.99917 8.32969C9.87776 8.32969 11.3928 9.36223 12.2411 10.577L15.6347 7.17569Z" fill="#C3C6CB"/>
<path d="M17.2875 23.5444H22.287V17.6529H24.3171C29.2862 17.6529 32.5586 14.9501 32.5586 10.8199C32.5586 6.75053 29.2862 4.07809 24.3474 4.07809H17.2875V23.5444ZM24.7413 8.48154C26.2563 8.48154 27.2562 9.42297 27.2562 10.8199C27.2562 12.2776 26.2563 13.2494 24.7413 13.2494H22.287V8.48154H24.7413Z" fill="#C3C6CB"/>
<path d="M45.3494 23.5444H50.864L43.289 4.07809H37.4109L29.8359 23.5444H35.0778L36.411 19.8698H44.0162L45.3494 23.5444ZM42.4104 15.436H38.0169L40.2288 9.3926L42.4104 15.436Z" fill="#C3C6CB"/>
<path d="M67.4631 6.50758C65.9178 4.77657 63.5242 3.62256 60.0094 3.62256C54.4645 3.62256 49.9498 8.17785 49.9498 13.796C49.9498 19.4142 54.2524 23.9999 59.9791 23.9999C63.3727 23.9999 65.8269 22.9674 67.4631 20.9934L64.1301 17.2884C63.2515 18.3513 61.7365 18.9891 60.3124 18.9891C57.4036 18.9891 55.3129 16.6507 55.3129 13.796C55.3129 10.9414 57.4036 8.63338 60.07 8.63338C61.7062 8.63338 63.2212 9.3926 64.1301 10.334L67.4631 6.50758Z" fill="#C3C6CB"/>
<path d="M68.8281 23.5444H81.7358V18.8372H73.8275V16.0433H80.5238V11.3362H73.8275V8.78522H81.7358V4.07809H68.8281V23.5444Z" fill="#C3C6CB"/>
</g>
<defs>
<radialGradient id="paint0_angular" cx="0" cy="0" r="1" gradientUnits="userSpaceOnUse" gradientTransform="translate(81.7356 4.07547) rotate(90) scale(4.07547 3.64336)">
<stop offset="0.159406" stop-color="#EE2C49"/>
<stop offset="0.251069" stop-color="#A4E21F"/>
<stop offset="0.849198" stop-color="#11A8FD"/>
</radialGradient>
</defs>
</svg>
