<svg width="477" height="180" viewBox="0 0 477 180" fill="none" xmlns="http://www.w3.org/2000/svg">
<g filter="url(#filter0_d)">
<path d="M115.89 57.4367C108.83 47.1535 96.182 40 79.8568 40C58.9724 40 43.8239 52.3696 43.8239 69.5082C43.8239 103.189 89.8578 97.079 89.8578 110.045C89.8578 114.516 86.0339 116.9 78.6802 116.9C70.0029 116.9 62.6493 113.323 57.2076 105.723L40 122.116C45.8829 131.505 56.9134 140 78.239 140C100.447 140 115.89 126.736 115.89 109.001C115.89 75.6185 69.8559 81.2817 69.8559 68.9121C69.8559 65.4844 72.7973 63.0998 78.8273 63.0998C87.9459 63.0998 95.2995 68.1669 99.4176 74.1282L115.89 57.4367Z" fill="white"/>
<path d="M123.912 137.765H148.179V108.852H158.033C182.153 108.852 198.037 95.5887 198.037 75.3204C198.037 55.3502 182.153 42.2355 158.18 42.2355H123.912V137.765ZM160.092 63.845C167.446 63.845 172.299 68.465 172.299 75.3204C172.299 82.4739 167.446 87.2429 160.092 87.2429H148.179V63.845H160.092Z" fill="white"/>
<path d="M260.123 137.765H286.89L250.122 42.2355H221.589L184.821 137.765H210.265L216.736 119.732H253.651L260.123 137.765ZM245.856 97.9732H224.531L235.267 68.3159L245.856 97.9732Z" fill="white"/>
<path d="M367.461 54.158C359.96 45.6632 348.341 40 331.281 40C304.366 40 282.452 62.3547 282.452 89.9255C282.452 117.496 303.337 140 331.134 140C347.606 140 359.519 134.933 367.461 125.246L351.283 107.064C347.018 112.28 339.664 115.41 332.751 115.41C318.632 115.41 308.484 103.934 308.484 89.9255C308.484 75.9165 318.632 64.5902 331.575 64.5902C339.517 64.5902 346.87 68.3159 351.283 72.9359L367.461 54.158Z" fill="white"/>
<path d="M374.086 137.765H436.739V114.665H398.353V100.954H430.856V77.8539H398.353V65.3353H436.739V42.2355H374.086V137.765Z" fill="white"/>
</g>
<defs>
<filter id="filter0_d" x="0" y="0" width="476.739" height="180" filterUnits="userSpaceOnUse" color-interpolation-filters="sRGB">
<feFlood flood-opacity="0" result="BackgroundImageFix"/>
<feColorMatrix in="SourceAlpha" type="matrix" values="0 0 0 0 0 0 0 0 0 0 0 0 0 0 0 0 0 0 127 0"/>
<feOffset/>
<feGaussianBlur stdDeviation="20"/>
<feColorMatrix type="matrix" values="0 0 0 0 1 0 0 0 0 1 0 0 0 0 1 0 0 0 0.2 0"/>
<feBlend mode="normal" in2="BackgroundImageFix" result="effect1_dropShadow"/>
<feBlend mode="normal" in="SourceGraphic" in2="effect1_dropShadow" result="shape"/>
</filter>
</defs>
</svg>
